<?xml version="1.0" encoding="UTF-8"?>
<svg xmlns="http://www.w3.org/2000/svg" xmlns:xlink="http://www.w3.org/1999/xlink" width="854" height="480" viewBox="0 0 854 480">
<defs>
<g>
<g id="glyph-0-0">
<path d="M 0.015625 0 L 0.015625 -0.1875 L 0.0625 -0.1875 C 0.164062 -0.1875 0.25 -0.207031 0.3125 -0.25 C 0.382812 -0.289062 0.460938 -0.363281 0.546875 -0.46875 L 1.109375 -1.1875 L 0.546875 -1.953125 C 0.484375 -2.035156 0.421875 -2.09375 0.359375 -2.125 C 0.296875 -2.164062 0.234375 -2.1875 0.171875 -2.1875 L 0.109375 -2.1875 L 0.109375 -2.375 L 1.234375 -2.375 L 1.234375 -2.1875 L 1.21875 -2.1875 C 1.113281 -2.1875 1.046875 -2.171875 1.015625 -2.140625 C 0.984375 -2.117188 0.96875 -2.09375 0.96875 -2.0625 C 0.96875 -2.03125 0.972656 -2 0.984375 -1.96875 C 1.003906 -1.945312 1.03125 -1.910156 1.0625 -1.859375 L 1.359375 -1.453125 L 1.59375 -1.796875 C 1.625 -1.847656 1.648438 -1.894531 1.671875 -1.9375 C 1.691406 -1.976562 1.703125 -2.019531 1.703125 -2.0625 C 1.703125 -2.113281 1.675781 -2.144531 1.625 -2.15625 C 1.582031 -2.175781 1.53125 -2.1875 1.46875 -2.1875 L 1.453125 -2.1875 L 1.453125 -2.375 L 2.421875 -2.375 L 2.421875 -2.1875 L 2.390625 -2.1875 C 2.296875 -2.1875 2.21875 -2.171875 2.15625 -2.140625 C 2.09375 -2.109375 2.019531 -2.03125 1.9375 -1.90625 L 1.484375 -1.296875 L 2.125 -0.421875 C 2.195312 -0.335938 2.257812 -0.273438 2.3125 -0.234375 C 2.375 -0.203125 2.429688 -0.1875 2.484375 -0.1875 L 2.546875 -0.1875 L 2.546875 0 L 1.390625 0 L 1.390625 -0.1875 L 1.421875 -0.1875 C 1.597656 -0.1875 1.6875 -0.234375 1.6875 -0.328125 C 1.6875 -0.359375 1.675781 -0.394531 1.65625 -0.4375 C 1.632812 -0.476562 1.585938 -0.546875 1.515625 -0.640625 L 1.21875 -1.03125 L 0.90625 -0.609375 C 0.882812 -0.566406 0.859375 -0.519531 0.828125 -0.46875 C 0.804688 -0.414062 0.796875 -0.367188 0.796875 -0.328125 C 0.796875 -0.273438 0.816406 -0.238281 0.859375 -0.21875 C 0.898438 -0.195312 0.96875 -0.1875 1.0625 -0.1875 L 1.078125 -0.1875 L 1.078125 0 Z "/>
</g>
<g id="glyph-0-1">
<path d="M 0.421875 0 L 0.421875 -0.1875 L 0.71875 -0.1875 C 0.820312 -0.1875 0.910156 -0.203125 0.984375 -0.234375 C 1.054688 -0.273438 1.09375 -0.363281 1.09375 -0.5 L 1.09375 -2.828125 C 0.976562 -2.691406 0.875 -2.582031 0.78125 -2.5 C 0.6875 -2.414062 0.597656 -2.375 0.515625 -2.375 C 0.453125 -2.375 0.398438 -2.394531 0.359375 -2.4375 C 0.316406 -2.476562 0.296875 -2.535156 0.296875 -2.609375 C 0.378906 -2.640625 0.46875 -2.675781 0.5625 -2.71875 C 0.664062 -2.769531 0.789062 -2.847656 0.9375 -2.953125 L 1.25 -3.1875 L 1.53125 -3.1875 L 1.53125 -0.5 C 1.53125 -0.363281 1.566406 -0.273438 1.640625 -0.234375 C 1.710938 -0.203125 1.800781 -0.1875 1.90625 -0.1875 L 2.109375 -0.1875 L 2.109375 0 Z "/>
</g>
</g>
</defs>
<g fill="rgb(100%, 100%, 100%)" fill-opacity="1">
<use xlink:href="#glyph-0-0" x="30" y="24.750977"/>
<use xlink:href="#glyph-0-1" x="33" y="24.750977"/>
</g>
</svg>
