<?xml version="1.0" encoding="UTF-8"?>
<svg xmlns="http://www.w3.org/2000/svg" xmlns:xlink="http://www.w3.org/1999/xlink" width="854" height="480" viewBox="0 0 854 480">
<defs>
<g>
<g id="glyph-0-0">
<path d="M 0.015625 0 L 0.015625 -0.1875 L 0.0625 -0.1875 C 0.164062 -0.1875 0.25 -0.207031 0.3125 -0.25 C 0.382812 -0.289062 0.460938 -0.363281 0.546875 -0.46875 L 1.109375 -1.1875 L 0.546875 -1.953125 C 0.484375 -2.035156 0.421875 -2.09375 0.359375 -2.125 C 0.296875 -2.164062 0.234375 -2.1875 0.171875 -2.1875 L 0.109375 -2.1875 L 0.109375 -2.375 L 1.234375 -2.375 L 1.234375 -2.1875 L 1.21875 -2.1875 C 1.113281 -2.1875 1.046875 -2.171875 1.015625 -2.140625 C 0.984375 -2.117188 0.96875 -2.09375 0.96875 -2.0625 C 0.96875 -2.03125 0.972656 -2 0.984375 -1.96875 C 1.003906 -1.945312 1.03125 -1.910156 1.0625 -1.859375 L 1.359375 -1.453125 L 1.59375 -1.796875 C 1.625 -1.847656 1.648438 -1.894531 1.671875 -1.9375 C 1.691406 -1.976562 1.703125 -2.019531 1.703125 -2.0625 C 1.703125 -2.113281 1.675781 -2.144531 1.625 -2.15625 C 1.582031 -2.175781 1.53125 -2.1875 1.46875 -2.1875 L 1.453125 -2.1875 L 1.453125 -2.375 L 2.421875 -2.375 L 2.421875 -2.1875 L 2.390625 -2.1875 C 2.296875 -2.1875 2.21875 -2.171875 2.15625 -2.140625 C 2.09375 -2.109375 2.019531 -2.03125 1.9375 -1.90625 L 1.484375 -1.296875 L 2.125 -0.421875 C 2.195312 -0.335938 2.257812 -0.273438 2.3125 -0.234375 C 2.375 -0.203125 2.429688 -0.1875 2.484375 -0.1875 L 2.546875 -0.1875 L 2.546875 0 L 1.390625 0 L 1.390625 -0.1875 L 1.421875 -0.1875 C 1.597656 -0.1875 1.6875 -0.234375 1.6875 -0.328125 C 1.6875 -0.359375 1.675781 -0.394531 1.65625 -0.4375 C 1.632812 -0.476562 1.585938 -0.546875 1.515625 -0.640625 L 1.21875 -1.03125 L 0.90625 -0.609375 C 0.882812 -0.566406 0.859375 -0.519531 0.828125 -0.46875 C 0.804688 -0.414062 0.796875 -0.367188 0.796875 -0.328125 C 0.796875 -0.273438 0.816406 -0.238281 0.859375 -0.21875 C 0.898438 -0.195312 0.96875 -0.1875 1.0625 -0.1875 L 1.078125 -0.1875 L 1.078125 0 Z "/>
</g>
<g id="glyph-0-1">
<path d="M 1.09375 0.046875 C 0.800781 0.046875 0.585938 0 0.453125 -0.09375 C 0.316406 -0.195312 0.25 -0.316406 0.25 -0.453125 C 0.25 -0.535156 0.273438 -0.601562 0.328125 -0.65625 C 0.378906 -0.707031 0.445312 -0.734375 0.53125 -0.734375 C 0.53125 -0.578125 0.578125 -0.445312 0.671875 -0.34375 C 0.773438 -0.238281 0.914062 -0.1875 1.09375 -0.1875 C 1.21875 -0.1875 1.328125 -0.207031 1.421875 -0.25 C 1.523438 -0.300781 1.609375 -0.378906 1.671875 -0.484375 C 1.734375 -0.585938 1.765625 -0.726562 1.765625 -0.90625 C 1.765625 -1.09375 1.691406 -1.242188 1.546875 -1.359375 C 1.398438 -1.472656 1.203125 -1.53125 0.953125 -1.53125 L 0.8125 -1.53125 L 0.8125 -1.75 L 0.953125 -1.75 C 1.085938 -1.75 1.207031 -1.773438 1.3125 -1.828125 C 1.414062 -1.890625 1.5 -1.972656 1.5625 -2.078125 C 1.625 -2.179688 1.65625 -2.300781 1.65625 -2.4375 C 1.65625 -2.613281 1.617188 -2.75 1.546875 -2.84375 C 1.472656 -2.9375 1.351562 -2.984375 1.1875 -2.984375 C 1.050781 -2.984375 0.945312 -2.953125 0.875 -2.890625 C 0.800781 -2.828125 0.75 -2.742188 0.71875 -2.640625 C 0.695312 -2.546875 0.6875 -2.441406 0.6875 -2.328125 C 0.582031 -2.328125 0.492188 -2.347656 0.421875 -2.390625 C 0.347656 -2.429688 0.3125 -2.507812 0.3125 -2.625 C 0.3125 -2.789062 0.382812 -2.929688 0.53125 -3.046875 C 0.675781 -3.160156 0.894531 -3.21875 1.1875 -3.21875 C 1.46875 -3.21875 1.691406 -3.15625 1.859375 -3.03125 C 2.023438 -2.90625 2.109375 -2.726562 2.109375 -2.5 C 2.109375 -2.375 2.078125 -2.253906 2.015625 -2.140625 C 1.953125 -2.023438 1.867188 -1.925781 1.765625 -1.84375 C 1.660156 -1.769531 1.539062 -1.71875 1.40625 -1.6875 C 1.488281 -1.675781 1.578125 -1.65625 1.671875 -1.625 C 1.765625 -1.601562 1.851562 -1.5625 1.9375 -1.5 C 2.019531 -1.445312 2.085938 -1.367188 2.140625 -1.265625 C 2.191406 -1.171875 2.21875 -1.050781 2.21875 -0.90625 C 2.21875 -0.726562 2.179688 -0.578125 2.109375 -0.453125 C 2.046875 -0.328125 1.957031 -0.226562 1.84375 -0.15625 C 1.738281 -0.0820312 1.617188 -0.03125 1.484375 0 C 1.347656 0.03125 1.21875 0.046875 1.09375 0.046875 Z "/>
</g>
</g>
</defs>
<g fill="rgb(100%, 100%, 100%)" fill-opacity="1">
<use xlink:href="#glyph-0-0" x="30" y="24.750977"/>
<use xlink:href="#glyph-0-1" x="33" y="24.750977"/>
</g>
</svg>
