<?xml version="1.0" encoding="UTF-8"?>
<svg xmlns="http://www.w3.org/2000/svg" xmlns:xlink="http://www.w3.org/1999/xlink" width="854" height="480" viewBox="0 0 854 480">
<defs>
<g>
<g id="glyph-0-0">
<path d="M 0.171875 0 L 0.171875 -0.328125 L 0.421875 -0.328125 C 0.515625 -0.328125 0.585938 -0.347656 0.640625 -0.390625 C 0.703125 -0.429688 0.734375 -0.539062 0.734375 -0.71875 L 0.734375 -3.671875 C 0.734375 -3.828125 0.703125 -3.925781 0.640625 -3.96875 C 0.585938 -4.007812 0.515625 -4.03125 0.421875 -4.03125 L 0.171875 -4.03125 L 0.171875 -4.359375 L 2.1875 -4.359375 C 2.863281 -4.359375 3.390625 -4.179688 3.765625 -3.828125 C 4.148438 -3.472656 4.34375 -2.953125 4.34375 -2.265625 C 4.34375 -1.816406 4.257812 -1.421875 4.09375 -1.078125 C 3.9375 -0.742188 3.695312 -0.476562 3.375 -0.28125 C 3.0625 -0.09375 2.664062 0 2.1875 0 Z M 2.046875 -0.375 C 2.460938 -0.375 2.773438 -0.539062 2.984375 -0.875 C 3.203125 -1.21875 3.3125 -1.679688 3.3125 -2.265625 C 3.3125 -2.847656 3.203125 -3.28125 2.984375 -3.5625 C 2.773438 -3.84375 2.460938 -3.984375 2.046875 -3.984375 L 1.703125 -3.984375 L 1.703125 -0.375 Z "/>
</g>
<g id="glyph-0-1">
<path d="M 0.171875 0 L 0.171875 -0.328125 L 0.421875 -0.328125 C 0.515625 -0.328125 0.585938 -0.347656 0.640625 -0.390625 C 0.703125 -0.429688 0.734375 -0.53125 0.734375 -0.6875 L 0.734375 -3.640625 C 0.734375 -3.816406 0.703125 -3.925781 0.640625 -3.96875 C 0.585938 -4.007812 0.515625 -4.03125 0.421875 -4.03125 L 0.171875 -4.03125 L 0.171875 -4.359375 L 3.5625 -4.359375 L 3.59375 -3.234375 L 3.15625 -3.234375 L 3.125 -3.53125 C 3.113281 -3.675781 3.078125 -3.785156 3.015625 -3.859375 C 2.953125 -3.941406 2.859375 -3.984375 2.734375 -3.984375 L 1.703125 -3.984375 L 1.703125 -2.46875 L 3.15625 -2.46875 L 3.15625 -2.09375 L 1.703125 -2.09375 L 1.703125 -0.375 L 2.9375 -0.375 C 3.050781 -0.375 3.140625 -0.414062 3.203125 -0.5 C 3.265625 -0.59375 3.304688 -0.707031 3.328125 -0.84375 L 3.375 -1.125 L 3.796875 -1.125 L 3.75 0 Z "/>
</g>
<g id="glyph-0-2">
<path d="M 0.03125 0 L 0.03125 -0.328125 L 0.09375 -0.328125 C 0.207031 -0.328125 0.300781 -0.351562 0.375 -0.40625 C 0.445312 -0.46875 0.519531 -0.585938 0.59375 -0.765625 L 1.90625 -4.359375 L 2.75 -4.359375 L 4.03125 -0.765625 C 4.09375 -0.585938 4.160156 -0.46875 4.234375 -0.40625 C 4.304688 -0.351562 4.390625 -0.328125 4.484375 -0.328125 L 4.59375 -0.328125 L 4.59375 0 L 2.578125 0 L 2.578125 -0.328125 L 2.828125 -0.328125 C 2.890625 -0.328125 2.945312 -0.34375 3 -0.375 C 3.050781 -0.414062 3.078125 -0.476562 3.078125 -0.5625 C 3.078125 -0.613281 3.070312 -0.660156 3.0625 -0.703125 C 3.050781 -0.753906 3.039062 -0.796875 3.03125 -0.828125 L 2.8125 -1.4375 L 1.328125 -1.4375 L 1.15625 -0.90625 C 1.132812 -0.863281 1.113281 -0.804688 1.09375 -0.734375 C 1.082031 -0.671875 1.078125 -0.613281 1.078125 -0.5625 C 1.078125 -0.488281 1.101562 -0.429688 1.15625 -0.390625 C 1.21875 -0.347656 1.285156 -0.328125 1.359375 -0.328125 L 1.609375 -0.328125 L 1.609375 0 Z M 1.453125 -1.8125 L 2.6875 -1.8125 L 2.375 -2.8125 C 2.332031 -2.945312 2.285156 -3.097656 2.234375 -3.265625 C 2.179688 -3.441406 2.140625 -3.601562 2.109375 -3.75 C 2.066406 -3.613281 2.019531 -3.460938 1.96875 -3.296875 C 1.914062 -3.140625 1.867188 -2.988281 1.828125 -2.84375 Z "/>
</g>
<g id="glyph-0-3">
</g>
<g id="glyph-0-4">
<path d="M 0.171875 0 L 0.171875 -0.328125 L 0.421875 -0.328125 C 0.515625 -0.328125 0.585938 -0.347656 0.640625 -0.390625 C 0.703125 -0.429688 0.734375 -0.539062 0.734375 -0.71875 L 0.734375 -3.671875 C 0.734375 -3.828125 0.703125 -3.925781 0.640625 -3.96875 C 0.578125 -4.007812 0.503906 -4.03125 0.421875 -4.03125 L 0.171875 -4.03125 L 0.171875 -4.359375 L 1.53125 -4.359375 L 3.6875 -1.3125 L 3.6875 -3.671875 C 3.6875 -3.828125 3.65625 -3.925781 3.59375 -3.96875 C 3.53125 -4.007812 3.457031 -4.03125 3.375 -4.03125 L 3.109375 -4.03125 L 3.109375 -4.359375 L 4.703125 -4.359375 L 4.703125 -4.03125 L 4.453125 -4.03125 C 4.367188 -4.03125 4.296875 -4.007812 4.234375 -3.96875 C 4.171875 -3.925781 4.140625 -3.816406 4.140625 -3.640625 L 4.140625 0 L 3.578125 0 L 1.203125 -3.359375 L 1.203125 -0.71875 C 1.203125 -0.539062 1.226562 -0.429688 1.28125 -0.390625 C 1.34375 -0.347656 1.421875 -0.328125 1.515625 -0.328125 L 1.765625 -0.328125 L 1.765625 0 Z "/>
</g>
<g id="glyph-0-5">
<path d="M 2.359375 0.0625 C 1.828125 0.0625 1.410156 -0.0390625 1.109375 -0.25 C 0.816406 -0.46875 0.671875 -0.828125 0.671875 -1.328125 L 0.671875 -3.671875 C 0.671875 -3.828125 0.640625 -3.925781 0.578125 -3.96875 C 0.515625 -4.007812 0.441406 -4.03125 0.359375 -4.03125 L 0.09375 -4.03125 L 0.09375 -4.359375 L 2.203125 -4.359375 L 2.203125 -4.03125 L 1.953125 -4.03125 C 1.867188 -4.03125 1.796875 -4.007812 1.734375 -3.96875 C 1.671875 -3.925781 1.640625 -3.816406 1.640625 -3.640625 L 1.640625 -1.28125 C 1.640625 -0.9375 1.71875 -0.695312 1.875 -0.5625 C 2.039062 -0.4375 2.265625 -0.375 2.546875 -0.375 C 2.816406 -0.375 3.03125 -0.445312 3.1875 -0.59375 C 3.351562 -0.738281 3.4375 -0.960938 3.4375 -1.265625 L 3.4375 -3.671875 C 3.4375 -3.828125 3.40625 -3.925781 3.34375 -3.96875 C 3.28125 -4.007812 3.207031 -4.03125 3.125 -4.03125 L 2.859375 -4.03125 L 2.859375 -4.359375 L 4.46875 -4.359375 L 4.46875 -4.03125 L 4.203125 -4.03125 C 4.117188 -4.03125 4.046875 -4.007812 3.984375 -3.96875 C 3.921875 -3.925781 3.890625 -3.816406 3.890625 -3.640625 L 3.890625 -1.265625 C 3.890625 -0.847656 3.769531 -0.519531 3.53125 -0.28125 C 3.289062 -0.0507812 2.898438 0.0625 2.359375 0.0625 Z "/>
</g>
<g id="glyph-0-6">
<path d="M 0.171875 0 L 0.171875 -0.328125 L 0.421875 -0.328125 C 0.503906 -0.328125 0.578125 -0.347656 0.640625 -0.390625 C 0.703125 -0.429688 0.734375 -0.53125 0.734375 -0.6875 L 0.734375 -3.671875 C 0.734375 -3.828125 0.703125 -3.925781 0.640625 -3.96875 C 0.578125 -4.007812 0.503906 -4.03125 0.421875 -4.03125 L 0.171875 -4.03125 L 0.171875 -4.359375 L 2.140625 -4.359375 C 2.710938 -4.359375 3.132812 -4.257812 3.40625 -4.0625 C 3.675781 -3.875 3.8125 -3.597656 3.8125 -3.234375 C 3.8125 -3.015625 3.769531 -2.828125 3.6875 -2.671875 C 3.601562 -2.523438 3.5 -2.398438 3.375 -2.296875 C 3.25 -2.203125 3.117188 -2.128906 2.984375 -2.078125 L 3.703125 -0.828125 C 3.816406 -0.648438 3.914062 -0.519531 4 -0.4375 C 4.09375 -0.363281 4.195312 -0.328125 4.3125 -0.328125 L 4.34375 -0.328125 L 4.34375 0 L 4.140625 0 C 3.898438 0 3.695312 -0.0078125 3.53125 -0.03125 C 3.363281 -0.0625 3.226562 -0.117188 3.125 -0.203125 C 3.019531 -0.285156 2.921875 -0.398438 2.828125 -0.546875 L 2.109375 -1.890625 L 1.703125 -1.890625 L 1.703125 -0.6875 C 1.703125 -0.53125 1.734375 -0.429688 1.796875 -0.390625 C 1.859375 -0.347656 1.929688 -0.328125 2.015625 -0.328125 L 2.28125 -0.328125 L 2.28125 0 Z M 2.046875 -2.25 C 2.328125 -2.25 2.519531 -2.320312 2.625 -2.46875 C 2.726562 -2.625 2.78125 -2.847656 2.78125 -3.140625 C 2.78125 -3.453125 2.722656 -3.671875 2.609375 -3.796875 C 2.492188 -3.929688 2.300781 -4 2.03125 -4 L 1.703125 -4 L 1.703125 -2.25 Z "/>
</g>
<g id="glyph-0-7">
<path d="M 2.40625 0.0625 C 1.9375 0.0625 1.550781 -0.03125 1.25 -0.21875 C 0.945312 -0.40625 0.71875 -0.664062 0.5625 -1 C 0.414062 -1.34375 0.34375 -1.738281 0.34375 -2.1875 C 0.34375 -2.644531 0.414062 -3.039062 0.5625 -3.375 C 0.71875 -3.707031 0.945312 -3.960938 1.25 -4.140625 C 1.5625 -4.328125 1.945312 -4.421875 2.40625 -4.421875 C 2.851562 -4.421875 3.226562 -4.328125 3.53125 -4.140625 C 3.84375 -3.960938 4.078125 -3.703125 4.234375 -3.359375 C 4.390625 -3.023438 4.46875 -2.632812 4.46875 -2.1875 C 4.46875 -1.738281 4.382812 -1.34375 4.21875 -1 C 4.0625 -0.664062 3.832031 -0.40625 3.53125 -0.21875 C 3.226562 -0.03125 2.851562 0.0625 2.40625 0.0625 Z M 2.40625 -0.34375 C 2.789062 -0.34375 3.0625 -0.503906 3.21875 -0.828125 C 3.375 -1.148438 3.453125 -1.601562 3.453125 -2.1875 C 3.453125 -2.769531 3.375 -3.222656 3.21875 -3.546875 C 3.0625 -3.867188 2.789062 -4.03125 2.40625 -4.03125 C 2.03125 -4.03125 1.757812 -3.867188 1.59375 -3.546875 C 1.4375 -3.222656 1.359375 -2.769531 1.359375 -2.1875 C 1.359375 -1.601562 1.4375 -1.148438 1.59375 -0.828125 C 1.757812 -0.503906 2.03125 -0.34375 2.40625 -0.34375 Z "/>
</g>
</g>
</defs>
<g fill="rgb(98.823529%, 38.431373%, 33.333333%)" fill-opacity="1">
<use xlink:href="#glyph-0-0" x="30" y="26.532227"/>
<use xlink:href="#glyph-0-1" x="35" y="26.532227"/>
<use xlink:href="#glyph-0-2" x="39" y="26.532227"/>
<use xlink:href="#glyph-0-0" x="44" y="26.532227"/>
<use xlink:href="#glyph-0-3" x="49" y="26.532227"/>
<use xlink:href="#glyph-0-4" x="51" y="26.532227"/>
<use xlink:href="#glyph-0-1" x="56" y="26.532227"/>
<use xlink:href="#glyph-0-5" x="60" y="26.532227"/>
<use xlink:href="#glyph-0-6" x="65" y="26.532227"/>
<use xlink:href="#glyph-0-7" x="69" y="26.532227"/>
<use xlink:href="#glyph-0-4" x="74" y="26.532227"/>
</g>
</svg>
