<?xml version="1.0" encoding="UTF-8"?>
<svg xmlns="http://www.w3.org/2000/svg" xmlns:xlink="http://www.w3.org/1999/xlink" width="854" height="480" viewBox="0 0 854 480">
<defs>
<g>
<g id="glyph-0-0">
<path d="M 6.28125 -7.578125 L 7.546875 -8.1875 C 7.84375 -10.15625 8.3125 -9.796875 8.3125 -11.28125 C 8.3125 -12.984375 6.9375 -13.984375 5.1875 -13.984375 C 3.421875 -13.984375 2.015625 -13 2.015625 -11.28125 C 2.015625 -9.421875 2.484375 -10.296875 2.796875 -8.1875 L 4.0625 -7.578125 L 4.234375 -7.125 C 4.515625 -7.046875 4.796875 -7 5.1875 -7 C 5.5625 -7 5.875 -7.046875 6.09375 -7.125 Z M 6.875 -7.375 L 6.5625 -7.453125 C 6.265625 -6.71875 6.15625 -6.453125 5.125 -6.453125 C 4.1875 -6.453125 4.046875 -6.765625 3.765625 -7.453125 L 3.4375 -7.375 L 3.65625 -6.484375 L 4.21875 -6 C 4.40625 -5.640625 4.71875 -5.4375 5.15625 -5.4375 C 5.625 -5.4375 5.921875 -5.65625 6.09375 -6 L 6.65625 -6.484375 Z M 5.21875 -3.65625 C 4.234375 -4.140625 3.421875 -4.515625 2.71875 -4.765625 C 2.40625 -5.15625 1.796875 -5.84375 1.375 -5.84375 C 1.078125 -5.84375 0.953125 -5.640625 0.953125 -5.3125 C 0.953125 -5.203125 0.984375 -5 1.0625 -4.765625 C 0.796875 -4.40625 0.65625 -4.1875 0.65625 -4.0625 C 0.65625 -3.796875 0.859375 -3.6875 1.140625 -3.6875 C 1.421875 -3.6875 1.71875 -3.921875 1.90625 -4.078125 C 2.546875 -3.953125 3.359375 -3.65625 4.359375 -3.15625 C 3.625 -2.734375 2.953125 -2.34375 2.421875 -1.9375 C 1.65625 -1.84375 0.640625 -1.765625 0.640625 -1.078125 C 0.640625 -0.734375 0.9375 -0.578125 1.5625 -0.578125 C 1.8125 -0.1875 2.046875 0 2.234375 0 C 2.5625 0 2.765625 -0.34375 2.859375 -1.015625 C 3.5625 -1.65625 4.3125 -2.21875 5.140625 -2.6875 C 5.8125 -2.3125 6.5625 -1.796875 7.40625 -1.09375 C 7.59375 -0.59375 7.8125 0 8.140625 0 C 8.3125 0 8.546875 -0.1875 8.8125 -0.5 C 9.40625 -0.59375 9.703125 -0.78125 9.703125 -1.0625 C 9.703125 -1.484375 9.15625 -1.765625 8.0625 -1.875 C 7.1875 -2.40625 6.71875 -2.734375 6 -3.15625 C 7.015625 -3.65625 7.8125 -3.984375 8.359375 -4.078125 C 8.59375 -3.921875 9.0625 -3.640625 9.265625 -3.640625 C 9.546875 -3.640625 9.703125 -3.765625 9.703125 -4.046875 C 9.703125 -4.203125 9.5625 -4.4375 9.296875 -4.765625 C 9.34375 -5.015625 9.359375 -5.21875 9.359375 -5.34375 C 9.359375 -5.640625 9.28125 -5.8125 9 -5.8125 C 8.65625 -5.8125 7.8125 -4.953125 7.640625 -4.765625 C 6.65625 -4.359375 5.640625 -3.90625 5.21875 -3.65625 Z M 3.125 -9.8125 C 3.125 -10.265625 3.640625 -10.640625 3.984375 -10.640625 C 4.484375 -10.640625 4.625 -10.40625 4.625 -9.875 C 4.625 -9.265625 4.359375 -8.953125 3.859375 -8.953125 C 3.359375 -8.953125 3.125 -9.234375 3.125 -9.8125 Z M 5.78125 -9.8125 C 5.78125 -10.359375 5.9375 -10.640625 6.453125 -10.640625 C 6.796875 -10.640625 7.28125 -10.359375 7.28125 -9.875 C 7.28125 -9.265625 7.046875 -8.953125 6.546875 -8.953125 C 6.015625 -8.953125 5.78125 -9.234375 5.78125 -9.8125 Z M 5.1875 -9.078125 C 5.421875 -8.703125 5.734375 -8.421875 5.734375 -8.234375 C 5.734375 -8.046875 5.625 -7.9375 5.40625 -7.9375 C 5.34375 -7.9375 5.265625 -7.984375 5.1875 -8.015625 C 5.09375 -7.984375 5.015625 -7.9375 4.953125 -7.9375 C 4.765625 -7.9375 4.640625 -8.046875 4.640625 -8.234375 C 4.640625 -8.4375 4.84375 -8.515625 5.1875 -9.078125 Z M 6.078125 -7.765625 L 5.921875 -7.3125 C 5.703125 -7.28125 5.484375 -7.234375 5.1875 -7.234375 C 4.875 -7.234375 4.640625 -7.28125 4.421875 -7.3125 L 4.265625 -7.765625 L 3.015625 -8.34375 C 2.6875 -10.453125 2.28125 -9.546875 2.28125 -11.28125 C 2.28125 -12.8125 3.5 -13.71875 5.1875 -13.71875 C 6.859375 -13.71875 8.078125 -12.796875 8.078125 -11.28125 C 8.078125 -9.9375 7.640625 -10.265625 7.3125 -8.34375 Z M 6.4375 -6.6875 L 6.484375 -6.625 C 6.359375 -6.421875 6.125 -6.296875 5.90625 -6.15625 C 5.734375 -5.859375 5.5625 -5.6875 5.15625 -5.6875 C 4.78125 -5.6875 4.5625 -5.859375 4.421875 -6.15625 C 4.1875 -6.265625 3.921875 -6.40625 3.84375 -6.625 L 3.859375 -6.6875 C 4.140625 -6.3125 4.515625 -6.203125 5.125 -6.203125 C 5.796875 -6.203125 6.1875 -6.3125 6.4375 -6.6875 Z M 7.78125 -4.5625 C 7.984375 -4.765625 8.8125 -5.546875 9 -5.578125 C 9.09375 -5.5625 9.125 -5.59375 9.125 -5.34375 C 9.125 -5.234375 9.0625 -4.90625 9.046875 -4.6875 C 9.265625 -4.421875 9.4375 -4.0625 9.4375 -4.046875 C 9.4375 -3.953125 9.40625 -3.875 9.265625 -3.875 C 9.140625 -3.875 8.640625 -4.203125 8.421875 -4.34375 C 7.703125 -4.21875 6.5 -3.6875 5.484375 -3.1875 C 6.375 -2.640625 6.921875 -2.265625 7.984375 -1.640625 C 9.125 -1.515625 9.4375 -1.234375 9.4375 -1.0625 C 9.4375 -0.984375 9.265625 -0.84375 8.703125 -0.734375 C 8.4375 -0.4375 8.1875 -0.234375 8.140625 -0.234375 C 8.078125 -0.234375 7.84375 -0.6875 7.59375 -1.265625 C 6.703125 -2 5.921875 -2.546875 5.140625 -2.953125 C 4.21875 -2.453125 3.375 -1.859375 2.625 -1.140625 C 2.515625 -0.453125 2.34375 -0.234375 2.234375 -0.234375 C 2.1875 -0.234375 1.921875 -0.484375 1.703125 -0.84375 C 1.09375 -0.84375 0.875 -0.921875 0.875 -1.078125 C 0.875 -1.484375 1.640625 -1.578125 2.515625 -1.703125 C 3.140625 -2.1875 4.0625 -2.703125 4.90625 -3.1875 C 3.84375 -3.703125 2.65625 -4.203125 1.8125 -4.34375 C 1.640625 -4.1875 1.3125 -3.921875 1.140625 -3.921875 C 0.984375 -3.921875 0.921875 -3.984375 0.921875 -4.0625 C 0.921875 -4.125 1.15625 -4.453125 1.34375 -4.71875 C 1.28125 -4.90625 1.203125 -5.21875 1.203125 -5.3125 C 1.203125 -5.578125 1.265625 -5.59375 1.375 -5.59375 C 1.625 -5.59375 2.234375 -4.953125 2.578125 -4.546875 C 3.3125 -4.296875 4.21875 -3.875 5.21875 -3.375 C 5.71875 -3.65625 6.71875 -4.125 7.78125 -4.5625 Z M 2.875 -9.8125 C 2.875 -9.15625 3.203125 -8.71875 3.859375 -8.71875 C 4.515625 -8.71875 4.875 -9.1875 4.875 -9.875 C 4.875 -10.515625 4.59375 -10.875 3.984375 -10.875 C 3.59375 -10.875 2.875 -10.359375 2.875 -9.8125 Z M 5.515625 -9.8125 C 5.515625 -9.15625 5.859375 -8.71875 6.546875 -8.71875 C 7.203125 -8.71875 7.515625 -9.1875 7.515625 -9.875 C 7.515625 -10.375 6.921875 -10.875 6.453125 -10.875 C 5.8125 -10.875 5.515625 -10.484375 5.515625 -9.8125 Z M 4.40625 -8.234375 C 4.40625 -7.90625 4.65625 -7.6875 4.953125 -7.6875 C 5.0625 -7.6875 5.15625 -7.734375 5.1875 -7.734375 C 5.265625 -7.71875 5.296875 -7.6875 5.40625 -7.6875 C 5.71875 -7.6875 6 -7.90625 6 -8.234375 C 6 -8.65625 5.421875 -9.015625 5.1875 -9.5625 C 4.921875 -9 4.40625 -8.59375 4.40625 -8.234375 Z "/>
</g>
</g>
</defs>
<g fill="rgb(98.823529%, 38.431373%, 33.333333%)" fill-opacity="1">
<use xlink:href="#glyph-0-0" x="30" y="36"/>
</g>
</svg>
