<?xml version="1.0" encoding="UTF-8"?>
<svg xmlns="http://www.w3.org/2000/svg" xmlns:xlink="http://www.w3.org/1999/xlink" width="854" height="480" viewBox="0 0 854 480">
<defs>
<g>
<g id="glyph-0-0">
<path d="M 0.109375 0 L 0.109375 -0.5625 L 0.1875 -0.5625 C 0.507812 -0.5625 0.757812 -0.628906 0.9375 -0.765625 C 1.125 -0.898438 1.335938 -1.144531 1.578125 -1.5 L 3.796875 -4.671875 L 1.59375 -8.25 C 1.4375 -8.507812 1.257812 -8.691406 1.0625 -8.796875 C 0.863281 -8.898438 0.660156 -8.953125 0.453125 -8.953125 L 0.28125 -8.953125 L 0.28125 -9.515625 L 3.890625 -9.515625 L 3.890625 -8.953125 L 3.859375 -8.953125 C 3.554688 -8.953125 3.351562 -8.914062 3.25 -8.84375 C 3.144531 -8.769531 3.09375 -8.675781 3.09375 -8.5625 C 3.09375 -8.476562 3.109375 -8.382812 3.140625 -8.28125 C 3.179688 -8.175781 3.269531 -8.007812 3.40625 -7.78125 L 4.609375 -5.84375 L 5.875 -7.75 C 5.976562 -7.90625 6.054688 -8.050781 6.109375 -8.1875 C 6.171875 -8.320312 6.203125 -8.445312 6.203125 -8.5625 C 6.203125 -8.726562 6.132812 -8.832031 6 -8.875 C 5.863281 -8.925781 5.691406 -8.953125 5.484375 -8.953125 L 5.453125 -8.953125 L 5.453125 -9.515625 L 8.375 -9.515625 L 8.375 -8.953125 L 8.25 -8.953125 C 7.988281 -8.953125 7.765625 -8.882812 7.578125 -8.75 C 7.398438 -8.613281 7.1875 -8.363281 6.9375 -8 L 5 -5.21875 L 7.453125 -1.265625 C 7.648438 -1.003906 7.832031 -0.820312 8 -0.71875 C 8.175781 -0.613281 8.347656 -0.5625 8.515625 -0.5625 L 8.6875 -0.5625 L 8.6875 0 L 5.09375 0 L 5.09375 -0.5625 L 5.15625 -0.5625 C 5.6875 -0.5625 5.953125 -0.707031 5.953125 -1 C 5.953125 -1.09375 5.925781 -1.195312 5.875 -1.3125 C 5.820312 -1.425781 5.703125 -1.628906 5.515625 -1.921875 L 4.203125 -4.03125 L 2.71875 -1.859375 C 2.644531 -1.734375 2.566406 -1.585938 2.484375 -1.421875 C 2.410156 -1.265625 2.375 -1.113281 2.375 -0.96875 C 2.375 -0.695312 2.660156 -0.5625 3.234375 -0.5625 L 3.28125 -0.5625 L 3.28125 0 Z "/>
</g>
</g>
</defs>
<g fill="rgb(98.823529%, 38.431373%, 33.333333%)" fill-opacity="1">
<use xlink:href="#glyph-0-0" x="30" y="34.25293"/>
</g>
</svg>
