<?xml version="1.0" encoding="UTF-8"?>
<svg xmlns="http://www.w3.org/2000/svg" xmlns:xlink="http://www.w3.org/1999/xlink" width="854" height="480" viewBox="0 0 854 480">
<defs>
<g>
<g id="glyph-0-0">
<path d="M 0.171875 0 L 0.171875 -0.1875 L 0.21875 -0.1875 C 0.320312 -0.1875 0.410156 -0.203125 0.484375 -0.234375 C 0.554688 -0.265625 0.59375 -0.347656 0.59375 -0.484375 L 0.59375 -2.6875 C 0.59375 -2.8125 0.554688 -2.890625 0.484375 -2.921875 C 0.410156 -2.960938 0.320312 -2.984375 0.21875 -2.984375 L 0.171875 -2.984375 L 0.171875 -3.171875 L 1.1875 -3.171875 L 2.09375 -0.625 L 3.015625 -3.171875 L 4 -3.171875 L 4 -2.984375 L 3.9375 -2.984375 C 3.832031 -2.984375 3.742188 -2.960938 3.671875 -2.921875 C 3.609375 -2.890625 3.578125 -2.800781 3.578125 -2.65625 L 3.578125 -0.5 C 3.578125 -0.363281 3.609375 -0.273438 3.671875 -0.234375 C 3.742188 -0.203125 3.832031 -0.1875 3.9375 -0.1875 L 4 -0.1875 L 4 0 L 2.8125 0 L 2.8125 -0.1875 L 2.828125 -0.1875 C 2.921875 -0.1875 2.992188 -0.203125 3.046875 -0.234375 C 3.109375 -0.265625 3.140625 -0.34375 3.140625 -0.46875 L 3.140625 -2.828125 L 2.125 0 L 1.890625 0 L 0.859375 -2.828125 L 0.859375 -0.5 C 0.859375 -0.363281 0.882812 -0.273438 0.9375 -0.234375 C 1 -0.203125 1.082031 -0.1875 1.1875 -0.1875 L 1.1875 0 Z "/>
</g>
<g id="glyph-0-1">
<path d="M 0.71875 -2.828125 C 0.644531 -2.828125 0.582031 -2.847656 0.53125 -2.890625 C 0.488281 -2.929688 0.46875 -3 0.46875 -3.09375 C 0.46875 -3.195312 0.488281 -3.269531 0.53125 -3.3125 C 0.582031 -3.351562 0.644531 -3.375 0.71875 -3.375 C 0.78125 -3.375 0.835938 -3.351562 0.890625 -3.3125 C 0.941406 -3.269531 0.96875 -3.195312 0.96875 -3.09375 C 0.96875 -3 0.941406 -2.929688 0.890625 -2.890625 C 0.835938 -2.847656 0.78125 -2.828125 0.71875 -2.828125 Z M 0.109375 0 L 0.109375 -0.1875 L 0.15625 -0.1875 C 0.257812 -0.1875 0.347656 -0.203125 0.421875 -0.234375 C 0.492188 -0.265625 0.53125 -0.347656 0.53125 -0.484375 L 0.53125 -1.890625 C 0.53125 -2.015625 0.492188 -2.09375 0.421875 -2.125 C 0.347656 -2.164062 0.257812 -2.1875 0.15625 -2.1875 L 0.140625 -2.1875 L 0.140625 -2.375 L 0.9375 -2.375 L 0.9375 -0.5 C 0.9375 -0.363281 0.972656 -0.273438 1.046875 -0.234375 C 1.117188 -0.203125 1.203125 -0.1875 1.296875 -0.1875 L 1.359375 -0.1875 L 1.359375 0 Z "/>
</g>
<g id="glyph-0-2">
<path d="M 0.125 0 L 0.125 -0.1875 L 0.15625 -0.1875 C 0.257812 -0.1875 0.347656 -0.203125 0.421875 -0.234375 C 0.492188 -0.273438 0.53125 -0.363281 0.53125 -0.5 L 0.53125 -1.890625 C 0.53125 -2.015625 0.492188 -2.09375 0.421875 -2.125 C 0.347656 -2.164062 0.265625 -2.1875 0.171875 -2.1875 L 0.140625 -2.1875 L 0.140625 -2.375 L 0.859375 -2.375 L 0.921875 -2.015625 L 0.9375 -2.015625 C 1.03125 -2.179688 1.132812 -2.289062 1.25 -2.34375 C 1.363281 -2.394531 1.492188 -2.421875 1.640625 -2.421875 C 1.867188 -2.421875 2.050781 -2.351562 2.1875 -2.21875 C 2.320312 -2.082031 2.390625 -1.859375 2.390625 -1.546875 L 2.390625 -0.5 C 2.390625 -0.363281 2.414062 -0.273438 2.46875 -0.234375 C 2.53125 -0.203125 2.613281 -0.1875 2.71875 -0.1875 L 2.734375 -0.1875 L 2.734375 0 L 1.96875 0 L 1.96875 -1.53125 C 1.96875 -1.71875 1.929688 -1.863281 1.859375 -1.96875 C 1.785156 -2.082031 1.660156 -2.140625 1.484375 -2.140625 C 1.347656 -2.140625 1.238281 -2.101562 1.15625 -2.03125 C 1.082031 -1.96875 1.023438 -1.878906 0.984375 -1.765625 C 0.953125 -1.660156 0.9375 -1.546875 0.9375 -1.421875 L 0.9375 -0.484375 C 0.9375 -0.347656 0.972656 -0.265625 1.046875 -0.234375 C 1.117188 -0.203125 1.203125 -0.1875 1.296875 -0.1875 L 1.3125 -0.1875 L 1.3125 0 Z "/>
</g>
<g id="glyph-0-3">
<path d="M 0.125 0 L 0.125 -0.1875 L 0.1875 -0.1875 C 0.28125 -0.1875 0.359375 -0.203125 0.421875 -0.234375 C 0.492188 -0.273438 0.53125 -0.363281 0.53125 -0.5 L 0.53125 -1.890625 C 0.53125 -2.015625 0.492188 -2.09375 0.421875 -2.125 C 0.359375 -2.164062 0.28125 -2.1875 0.1875 -2.1875 L 0.171875 -2.1875 L 0.171875 -2.375 L 0.859375 -2.375 L 0.921875 -2.015625 L 0.9375 -2.015625 C 1.03125 -2.179688 1.128906 -2.289062 1.234375 -2.34375 C 1.347656 -2.394531 1.472656 -2.421875 1.609375 -2.421875 C 1.753906 -2.421875 1.882812 -2.390625 2 -2.328125 C 2.113281 -2.265625 2.203125 -2.160156 2.265625 -2.015625 L 2.296875 -2.015625 C 2.378906 -2.179688 2.476562 -2.289062 2.59375 -2.34375 C 2.71875 -2.394531 2.847656 -2.421875 2.984375 -2.421875 C 3.210938 -2.421875 3.390625 -2.351562 3.515625 -2.21875 C 3.648438 -2.082031 3.71875 -1.859375 3.71875 -1.546875 L 3.71875 -0.5 C 3.71875 -0.363281 3.75 -0.273438 3.8125 -0.234375 C 3.875 -0.203125 3.957031 -0.1875 4.0625 -0.1875 L 4.0625 0 L 3.296875 0 L 3.296875 -1.53125 C 3.296875 -1.71875 3.257812 -1.863281 3.1875 -1.96875 C 3.125 -2.082031 3.003906 -2.140625 2.828125 -2.140625 C 2.710938 -2.140625 2.617188 -2.109375 2.546875 -2.046875 C 2.472656 -1.984375 2.421875 -1.898438 2.390625 -1.796875 C 2.359375 -1.703125 2.34375 -1.597656 2.34375 -1.484375 L 2.34375 -0.5 C 2.34375 -0.363281 2.375 -0.273438 2.4375 -0.234375 C 2.5 -0.203125 2.582031 -0.1875 2.6875 -0.1875 L 2.6875 0 L 1.921875 0 L 1.921875 -1.53125 C 1.921875 -1.71875 1.882812 -1.863281 1.8125 -1.96875 C 1.75 -2.082031 1.628906 -2.140625 1.453125 -2.140625 C 1.328125 -2.140625 1.222656 -2.101562 1.140625 -2.03125 C 1.066406 -1.96875 1.015625 -1.878906 0.984375 -1.765625 C 0.953125 -1.660156 0.9375 -1.546875 0.9375 -1.421875 L 0.9375 -0.484375 C 0.9375 -0.347656 0.972656 -0.265625 1.046875 -0.234375 C 1.117188 -0.203125 1.203125 -0.1875 1.296875 -0.1875 L 1.3125 -0.1875 L 1.3125 0 Z "/>
</g>
<g id="glyph-0-4">
<path d="M 1.21875 0.046875 C 0.976562 0.046875 0.796875 -0.0195312 0.671875 -0.15625 C 0.546875 -0.300781 0.484375 -0.523438 0.484375 -0.828125 L 0.484375 -1.890625 C 0.484375 -2.015625 0.445312 -2.09375 0.375 -2.125 C 0.300781 -2.164062 0.210938 -2.1875 0.109375 -2.1875 L 0.109375 -2.375 L 0.890625 -2.375 L 0.890625 -0.84375 C 0.890625 -0.65625 0.921875 -0.503906 0.984375 -0.390625 C 1.054688 -0.285156 1.179688 -0.234375 1.359375 -0.234375 C 1.554688 -0.234375 1.695312 -0.300781 1.78125 -0.4375 C 1.875 -0.570312 1.921875 -0.742188 1.921875 -0.953125 L 1.921875 -1.875 C 1.921875 -2.007812 1.882812 -2.09375 1.8125 -2.125 C 1.738281 -2.164062 1.65625 -2.1875 1.5625 -2.1875 L 1.546875 -2.1875 L 1.546875 -2.375 L 2.34375 -2.375 L 2.34375 -0.484375 C 2.34375 -0.347656 2.378906 -0.265625 2.453125 -0.234375 C 2.523438 -0.203125 2.609375 -0.1875 2.703125 -0.1875 L 2.71875 -0.1875 L 2.71875 0 L 2.015625 0 L 1.953125 -0.359375 L 1.9375 -0.359375 C 1.84375 -0.191406 1.734375 -0.0820312 1.609375 -0.03125 C 1.484375 0.0195312 1.351562 0.046875 1.21875 0.046875 Z "/>
</g>
</g>
</defs>
<g fill="rgb(96.862745%, 85.098039%, 43.529412%)" fill-opacity="1">
<use xlink:href="#glyph-0-0" x="30" y="24.750977"/>
<use xlink:href="#glyph-0-1" x="34" y="24.750977"/>
<use xlink:href="#glyph-0-2" x="35" y="24.750977"/>
<use xlink:href="#glyph-0-1" x="38" y="24.750977"/>
<use xlink:href="#glyph-0-3" x="39" y="24.750977"/>
<use xlink:href="#glyph-0-4" x="43" y="24.750977"/>
<use xlink:href="#glyph-0-3" x="46" y="24.750977"/>
</g>
</svg>
