<?xml version="1.0" encoding="UTF-8"?>
<svg xmlns="http://www.w3.org/2000/svg" xmlns:xlink="http://www.w3.org/1999/xlink" width="854" height="480" viewBox="0 0 854 480">
<defs>
<g>
<g id="glyph-0-0">
<path d="M 0.1875 0 L 0.1875 -0.203125 L 0.25 -0.203125 C 0.363281 -0.203125 0.460938 -0.222656 0.546875 -0.265625 C 0.628906 -0.304688 0.671875 -0.40625 0.671875 -0.5625 L 0.671875 -3 C 0.671875 -3.15625 0.628906 -3.253906 0.546875 -3.296875 C 0.460938 -3.335938 0.363281 -3.359375 0.25 -3.359375 L 0.1875 -3.359375 L 0.1875 -3.5625 L 1.640625 -3.5625 L 1.640625 -3.359375 L 1.578125 -3.359375 C 1.472656 -3.359375 1.378906 -3.335938 1.296875 -3.296875 C 1.210938 -3.253906 1.171875 -3.160156 1.171875 -3.015625 L 1.171875 -0.25 L 2.15625 -0.25 C 2.257812 -0.25 2.335938 -0.269531 2.390625 -0.3125 C 2.453125 -0.363281 2.5 -0.421875 2.53125 -0.484375 C 2.5625 -0.554688 2.582031 -0.628906 2.59375 -0.703125 L 2.640625 -1.078125 L 2.90625 -1.078125 L 2.875 0 Z "/>
</g>
<g id="glyph-0-1">
<path d="M 0.3125 0 L 0.3125 -0.359375 L 1.140625 -1.328125 C 1.316406 -1.535156 1.457031 -1.710938 1.5625 -1.859375 C 1.664062 -2.015625 1.738281 -2.160156 1.78125 -2.296875 C 1.820312 -2.429688 1.84375 -2.578125 1.84375 -2.734375 C 1.84375 -2.921875 1.800781 -3.070312 1.71875 -3.1875 C 1.644531 -3.3125 1.519531 -3.375 1.34375 -3.375 C 1.1875 -3.375 1.066406 -3.335938 0.984375 -3.265625 C 0.910156 -3.191406 0.859375 -3.097656 0.828125 -2.984375 C 0.804688 -2.878906 0.796875 -2.757812 0.796875 -2.625 C 0.671875 -2.625 0.566406 -2.644531 0.484375 -2.6875 C 0.398438 -2.738281 0.359375 -2.828125 0.359375 -2.953125 C 0.359375 -3.140625 0.441406 -3.296875 0.609375 -3.421875 C 0.773438 -3.554688 1.019531 -3.625 1.34375 -3.625 C 1.65625 -3.625 1.898438 -3.546875 2.078125 -3.390625 C 2.265625 -3.242188 2.359375 -3.039062 2.359375 -2.78125 C 2.359375 -2.550781 2.285156 -2.320312 2.140625 -2.09375 C 1.992188 -1.875 1.785156 -1.617188 1.515625 -1.328125 L 0.671875 -0.40625 L 1.828125 -0.40625 C 1.984375 -0.40625 2.085938 -0.441406 2.140625 -0.515625 C 2.191406 -0.585938 2.226562 -0.675781 2.25 -0.78125 L 2.265625 -0.859375 L 2.484375 -0.859375 L 2.453125 0 Z "/>
</g>
</g>
</defs>
<g fill="rgb(100%, 100%, 100%)" fill-opacity="1">
<use xlink:href="#glyph-0-0" x="30" y="25.344727"/>
<use xlink:href="#glyph-0-1" x="33" y="25.344727"/>
</g>
</svg>
