<?xml version="1.0" encoding="UTF-8"?>
<svg xmlns="http://www.w3.org/2000/svg" xmlns:xlink="http://www.w3.org/1999/xlink" width="854" height="480" viewBox="0 0 854 480">
<defs>
<g>
<g id="glyph-0-0">
<path d="M 2.796875 1.15625 C 2.617188 1.15625 2.445312 1.117188 2.28125 1.046875 C 2.113281 0.984375 1.96875 0.867188 1.84375 0.703125 C 1.726562 0.546875 1.660156 0.328125 1.640625 0.046875 C 1.335938 0.00390625 1.082031 -0.09375 0.875 -0.25 C 0.675781 -0.40625 0.523438 -0.613281 0.421875 -0.875 C 0.328125 -1.144531 0.28125 -1.453125 0.28125 -1.796875 C 0.28125 -2.160156 0.335938 -2.476562 0.453125 -2.75 C 0.566406 -3.03125 0.738281 -3.242188 0.96875 -3.390625 C 1.207031 -3.546875 1.503906 -3.625 1.859375 -3.625 C 2.191406 -3.625 2.472656 -3.546875 2.703125 -3.390625 C 2.941406 -3.242188 3.117188 -3.03125 3.234375 -2.75 C 3.359375 -2.476562 3.421875 -2.160156 3.421875 -1.796875 C 3.421875 -1.472656 3.375 -1.179688 3.28125 -0.921875 C 3.1875 -0.671875 3.046875 -0.460938 2.859375 -0.296875 C 2.679688 -0.140625 2.457031 -0.0351562 2.1875 0.015625 C 2.207031 0.242188 2.25 0.421875 2.3125 0.546875 C 2.382812 0.679688 2.472656 0.773438 2.578125 0.828125 C 2.679688 0.890625 2.800781 0.921875 2.9375 0.921875 L 3.015625 0.921875 L 3.015625 1.15625 Z M 1.859375 -0.21875 C 2.234375 -0.21875 2.492188 -0.351562 2.640625 -0.625 C 2.796875 -0.90625 2.875 -1.296875 2.875 -1.796875 C 2.875 -2.285156 2.796875 -2.664062 2.640625 -2.9375 C 2.492188 -3.21875 2.234375 -3.359375 1.859375 -3.359375 C 1.484375 -3.359375 1.21875 -3.21875 1.0625 -2.9375 C 0.90625 -2.664062 0.828125 -2.285156 0.828125 -1.796875 C 0.828125 -1.296875 0.90625 -0.90625 1.0625 -0.625 C 1.21875 -0.351562 1.484375 -0.21875 1.859375 -0.21875 Z "/>
</g>
<g id="glyph-0-1">
<path d="M 1.359375 0.046875 C 1.097656 0.046875 0.894531 -0.03125 0.75 -0.1875 C 0.613281 -0.34375 0.546875 -0.59375 0.546875 -0.9375 L 0.546875 -2.125 C 0.546875 -2.269531 0.503906 -2.363281 0.421875 -2.40625 C 0.335938 -2.445312 0.238281 -2.46875 0.125 -2.46875 L 0.109375 -2.46875 L 0.109375 -2.6875 L 1.015625 -2.6875 L 1.015625 -0.953125 C 1.015625 -0.734375 1.050781 -0.5625 1.125 -0.4375 C 1.195312 -0.320312 1.332031 -0.265625 1.53125 -0.265625 C 1.75 -0.265625 1.910156 -0.335938 2.015625 -0.484375 C 2.117188 -0.640625 2.171875 -0.835938 2.171875 -1.078125 L 2.171875 -2.109375 C 2.171875 -2.265625 2.128906 -2.363281 2.046875 -2.40625 C 1.960938 -2.445312 1.863281 -2.46875 1.75 -2.46875 L 1.734375 -2.46875 L 1.734375 -2.6875 L 2.640625 -2.6875 L 2.640625 -0.546875 C 2.640625 -0.398438 2.675781 -0.304688 2.75 -0.265625 C 2.832031 -0.222656 2.929688 -0.203125 3.046875 -0.203125 L 3.0625 -0.203125 L 3.0625 0 L 2.265625 0 L 2.203125 -0.40625 L 2.171875 -0.40625 C 2.066406 -0.21875 1.945312 -0.09375 1.8125 -0.03125 C 1.675781 0.0195312 1.523438 0.046875 1.359375 0.046875 Z "/>
</g>
<g id="glyph-0-2">
<path d="M 1.4375 0.046875 C 1.070312 0.046875 0.785156 -0.0703125 0.578125 -0.3125 C 0.378906 -0.550781 0.28125 -0.882812 0.28125 -1.3125 C 0.28125 -1.78125 0.375 -2.132812 0.5625 -2.375 C 0.757812 -2.613281 1.035156 -2.734375 1.390625 -2.734375 C 1.710938 -2.734375 1.960938 -2.628906 2.140625 -2.421875 C 2.328125 -2.222656 2.421875 -1.925781 2.421875 -1.53125 L 2.421875 -1.3125 L 0.765625 -1.3125 C 0.765625 -0.945312 0.828125 -0.679688 0.953125 -0.515625 C 1.078125 -0.347656 1.257812 -0.265625 1.5 -0.265625 C 1.675781 -0.265625 1.820312 -0.300781 1.9375 -0.375 C 2.0625 -0.445312 2.15625 -0.523438 2.21875 -0.609375 C 2.238281 -0.597656 2.257812 -0.578125 2.28125 -0.546875 C 2.300781 -0.523438 2.3125 -0.488281 2.3125 -0.4375 C 2.3125 -0.375 2.28125 -0.300781 2.21875 -0.21875 C 2.15625 -0.144531 2.054688 -0.0820312 1.921875 -0.03125 C 1.796875 0.0195312 1.632812 0.046875 1.4375 0.046875 Z M 1.921875 -1.578125 C 1.921875 -1.835938 1.878906 -2.046875 1.796875 -2.203125 C 1.710938 -2.367188 1.570312 -2.453125 1.375 -2.453125 C 1.1875 -2.453125 1.039062 -2.375 0.9375 -2.21875 C 0.84375 -2.070312 0.785156 -1.859375 0.765625 -1.578125 Z "/>
</g>
<g id="glyph-0-3">
<path d="M 0.171875 0 L 0.171875 -0.203125 L 0.1875 -0.203125 C 0.289062 -0.203125 0.382812 -0.222656 0.46875 -0.265625 C 0.550781 -0.304688 0.59375 -0.40625 0.59375 -0.5625 L 0.59375 -2.125 C 0.59375 -2.269531 0.550781 -2.363281 0.46875 -2.40625 C 0.382812 -2.445312 0.289062 -2.46875 0.1875 -2.46875 L 0.171875 -2.46875 L 0.171875 -2.6875 L 0.9375 -2.6875 L 1.03125 -2.1875 L 1.0625 -2.1875 C 1.101562 -2.28125 1.144531 -2.367188 1.1875 -2.453125 C 1.238281 -2.535156 1.304688 -2.601562 1.390625 -2.65625 C 1.472656 -2.707031 1.585938 -2.734375 1.734375 -2.734375 C 1.921875 -2.734375 2.054688 -2.703125 2.140625 -2.640625 C 2.234375 -2.578125 2.28125 -2.484375 2.28125 -2.359375 C 2.28125 -2.253906 2.242188 -2.171875 2.171875 -2.109375 C 2.097656 -2.046875 1.976562 -2.015625 1.8125 -2.015625 C 1.8125 -2.148438 1.789062 -2.25 1.75 -2.3125 C 1.707031 -2.375 1.640625 -2.40625 1.546875 -2.40625 C 1.453125 -2.40625 1.375 -2.367188 1.3125 -2.296875 C 1.25 -2.222656 1.195312 -2.128906 1.15625 -2.015625 C 1.125 -1.898438 1.097656 -1.78125 1.078125 -1.65625 C 1.066406 -1.53125 1.0625 -1.421875 1.0625 -1.328125 L 1.0625 -0.546875 C 1.0625 -0.398438 1.101562 -0.304688 1.1875 -0.265625 C 1.269531 -0.222656 1.363281 -0.203125 1.46875 -0.203125 L 1.609375 -0.203125 L 1.609375 0 Z "/>
</g>
<g id="glyph-0-4">
<path d="M 0.1875 0.96875 C 0.414062 0.96875 0.601562 0.921875 0.75 0.828125 C 0.894531 0.742188 1.007812 0.628906 1.09375 0.484375 C 1.1875 0.335938 1.257812 0.171875 1.3125 -0.015625 L 0.390625 -2.203125 C 0.347656 -2.304688 0.300781 -2.375 0.25 -2.40625 C 0.207031 -2.445312 0.132812 -2.46875 0.03125 -2.46875 L 0.015625 -2.46875 L 0.015625 -2.6875 L 1.21875 -2.6875 L 1.21875 -2.46875 L 1.203125 -2.46875 C 1.003906 -2.46875 0.90625 -2.390625 0.90625 -2.234375 C 0.90625 -2.171875 0.914062 -2.109375 0.9375 -2.046875 L 1.3125 -1.15625 C 1.34375 -1.082031 1.375 -1 1.40625 -0.90625 C 1.4375 -0.8125 1.460938 -0.722656 1.484375 -0.640625 C 1.515625 -0.554688 1.535156 -0.488281 1.546875 -0.4375 C 1.566406 -0.53125 1.597656 -0.628906 1.640625 -0.734375 C 1.679688 -0.835938 1.71875 -0.9375 1.75 -1.03125 L 2.078125 -2.015625 C 2.109375 -2.085938 2.125 -2.15625 2.125 -2.21875 C 2.125 -2.382812 2.015625 -2.46875 1.796875 -2.46875 L 1.78125 -2.46875 L 1.78125 -2.6875 L 2.828125 -2.6875 L 2.828125 -2.46875 L 2.8125 -2.46875 C 2.71875 -2.46875 2.644531 -2.441406 2.59375 -2.390625 C 2.539062 -2.335938 2.488281 -2.234375 2.4375 -2.078125 L 1.671875 0.015625 C 1.585938 0.265625 1.503906 0.460938 1.421875 0.609375 C 1.335938 0.765625 1.242188 0.882812 1.140625 0.96875 C 1.046875 1.050781 0.925781 1.109375 0.78125 1.140625 C 0.632812 1.179688 0.453125 1.203125 0.234375 1.203125 L 0.1875 1.203125 Z "/>
</g>
</g>
</defs>
<g fill="rgb(100%, 41.960784%, 41.960784%)" fill-opacity="1">
<use xlink:href="#glyph-0-0" x="30" y="25.344727"/>
<use xlink:href="#glyph-0-1" x="34" y="25.344727"/>
<use xlink:href="#glyph-0-2" x="37" y="25.344727"/>
<use xlink:href="#glyph-0-3" x="40" y="25.344727"/>
<use xlink:href="#glyph-0-4" x="42" y="25.344727"/>
</g>
</svg>
