<?xml version="1.0" encoding="UTF-8"?>
<svg xmlns="http://www.w3.org/2000/svg" xmlns:xlink="http://www.w3.org/1999/xlink" width="854" height="480" viewBox="0 0 854 480">
<defs>
<g>
<g id="glyph-0-0">
<path d="M 2.125 0.078125 C 1.738281 0.078125 1.410156 0.015625 1.140625 -0.109375 C 0.878906 -0.242188 0.679688 -0.421875 0.546875 -0.640625 C 0.421875 -0.867188 0.359375 -1.117188 0.359375 -1.390625 C 0.359375 -1.640625 0.410156 -1.847656 0.515625 -2.015625 C 0.617188 -2.191406 0.757812 -2.34375 0.9375 -2.46875 C 1.113281 -2.59375 1.316406 -2.707031 1.546875 -2.8125 C 1.242188 -2.976562 1 -3.175781 0.8125 -3.40625 C 0.625 -3.632812 0.53125 -3.910156 0.53125 -4.234375 C 0.53125 -4.472656 0.585938 -4.695312 0.703125 -4.90625 C 0.816406 -5.125 1 -5.300781 1.25 -5.4375 C 1.5 -5.570312 1.820312 -5.640625 2.21875 -5.640625 C 2.707031 -5.640625 3.082031 -5.507812 3.34375 -5.25 C 3.613281 -5 3.75 -4.679688 3.75 -4.296875 C 3.75 -3.953125 3.648438 -3.6875 3.453125 -3.5 C 3.265625 -3.3125 3.015625 -3.140625 2.703125 -2.984375 C 3.085938 -2.796875 3.394531 -2.582031 3.625 -2.34375 C 3.863281 -2.101562 3.984375 -1.816406 3.984375 -1.484375 C 3.984375 -0.992188 3.816406 -0.609375 3.484375 -0.328125 C 3.148438 -0.0546875 2.695312 0.078125 2.125 0.078125 Z M 2.3125 -3.15625 C 2.601562 -3.300781 2.800781 -3.460938 2.90625 -3.640625 C 3.007812 -3.816406 3.0625 -4.039062 3.0625 -4.3125 C 3.0625 -4.46875 3.03125 -4.617188 2.96875 -4.765625 C 2.914062 -4.910156 2.820312 -5.03125 2.6875 -5.125 C 2.5625 -5.21875 2.390625 -5.265625 2.171875 -5.265625 C 1.878906 -5.265625 1.65625 -5.175781 1.5 -5 C 1.34375 -4.820312 1.265625 -4.597656 1.265625 -4.328125 C 1.265625 -4.046875 1.351562 -3.820312 1.53125 -3.65625 C 1.707031 -3.488281 1.96875 -3.320312 2.3125 -3.15625 Z M 2.15625 -0.28125 C 2.5 -0.28125 2.769531 -0.375 2.96875 -0.5625 C 3.175781 -0.757812 3.28125 -1.007812 3.28125 -1.3125 C 3.28125 -1.582031 3.175781 -1.8125 2.96875 -2 C 2.769531 -2.195312 2.421875 -2.40625 1.921875 -2.625 C 1.671875 -2.5 1.472656 -2.328125 1.328125 -2.109375 C 1.179688 -1.898438 1.109375 -1.648438 1.109375 -1.359375 C 1.109375 -1.035156 1.195312 -0.773438 1.375 -0.578125 C 1.550781 -0.378906 1.8125 -0.28125 2.15625 -0.28125 Z "/>
</g>
</g>
</defs>
<g fill="rgb(100%, 100%, 100%)" fill-opacity="1">
<use xlink:href="#glyph-0-0" x="30" y="28.314453"/>
</g>
</svg>
