<?xml version="1.0" encoding="UTF-8"?>
<svg xmlns="http://www.w3.org/2000/svg" xmlns:xlink="http://www.w3.org/1999/xlink" width="854" height="480" viewBox="0 0 854 480">
<defs>
<g>
<g id="glyph-0-0">
<path d="M 0.1875 0 L 0.1875 -0.203125 L 0.25 -0.203125 C 0.363281 -0.203125 0.460938 -0.222656 0.546875 -0.265625 C 0.628906 -0.304688 0.671875 -0.398438 0.671875 -0.546875 L 0.671875 -3.015625 C 0.671875 -3.160156 0.628906 -3.253906 0.546875 -3.296875 C 0.460938 -3.335938 0.363281 -3.359375 0.25 -3.359375 L 0.1875 -3.359375 L 0.1875 -3.5625 L 1.328125 -3.5625 L 2.359375 -0.703125 L 3.390625 -3.5625 L 4.5 -3.5625 L 4.5 -3.359375 L 4.4375 -3.359375 C 4.320312 -3.359375 4.222656 -3.335938 4.140625 -3.296875 C 4.066406 -3.253906 4.03125 -3.15625 4.03125 -3 L 4.03125 -0.5625 C 4.03125 -0.40625 4.066406 -0.304688 4.140625 -0.265625 C 4.222656 -0.222656 4.320312 -0.203125 4.4375 -0.203125 L 4.5 -0.203125 L 4.5 0 L 3.171875 0 L 3.171875 -0.203125 L 3.1875 -0.203125 C 3.289062 -0.203125 3.375 -0.21875 3.4375 -0.25 C 3.5 -0.289062 3.535156 -0.382812 3.546875 -0.53125 L 3.546875 -3.1875 L 2.40625 0 L 2.125 0 L 0.96875 -3.1875 L 0.96875 -0.5625 C 0.96875 -0.40625 1 -0.304688 1.0625 -0.265625 C 1.125 -0.222656 1.210938 -0.203125 1.328125 -0.203125 L 1.34375 -0.203125 L 1.34375 0 Z "/>
</g>
<g id="glyph-0-1">
<path d="M 1.03125 0.046875 C 0.800781 0.046875 0.613281 -0.015625 0.46875 -0.140625 C 0.320312 -0.273438 0.25 -0.476562 0.25 -0.75 C 0.25 -1.019531 0.34375 -1.21875 0.53125 -1.34375 C 0.71875 -1.46875 1.003906 -1.535156 1.390625 -1.546875 L 1.8125 -1.5625 L 1.8125 -1.859375 C 1.8125 -1.984375 1.800781 -2.085938 1.78125 -2.171875 C 1.757812 -2.265625 1.710938 -2.335938 1.640625 -2.390625 C 1.578125 -2.453125 1.476562 -2.484375 1.34375 -2.484375 C 1.21875 -2.484375 1.117188 -2.457031 1.046875 -2.40625 C 0.984375 -2.363281 0.941406 -2.300781 0.921875 -2.21875 C 0.898438 -2.132812 0.890625 -2.039062 0.890625 -1.9375 C 0.742188 -1.9375 0.632812 -1.957031 0.5625 -2 C 0.488281 -2.050781 0.453125 -2.132812 0.453125 -2.25 C 0.453125 -2.363281 0.492188 -2.457031 0.578125 -2.53125 C 0.660156 -2.601562 0.769531 -2.65625 0.90625 -2.6875 C 1.039062 -2.71875 1.191406 -2.734375 1.359375 -2.734375 C 1.660156 -2.734375 1.890625 -2.664062 2.046875 -2.53125 C 2.203125 -2.40625 2.28125 -2.179688 2.28125 -1.859375 L 2.28125 -0.5625 C 2.28125 -0.425781 2.300781 -0.332031 2.34375 -0.28125 C 2.394531 -0.226562 2.472656 -0.203125 2.578125 -0.203125 L 2.59375 -0.203125 L 2.59375 0 L 1.921875 0 L 1.84375 -0.4375 L 1.8125 -0.4375 C 1.738281 -0.34375 1.664062 -0.257812 1.59375 -0.1875 C 1.53125 -0.113281 1.453125 -0.0546875 1.359375 -0.015625 C 1.273438 0.0234375 1.164062 0.046875 1.03125 0.046875 Z M 1.140625 -0.265625 C 1.335938 -0.265625 1.5 -0.328125 1.625 -0.453125 C 1.75 -0.578125 1.8125 -0.742188 1.8125 -0.953125 L 1.8125 -1.359375 L 1.484375 -1.34375 C 1.203125 -1.332031 1.003906 -1.273438 0.890625 -1.171875 C 0.785156 -1.066406 0.734375 -0.914062 0.734375 -0.71875 C 0.734375 -0.414062 0.867188 -0.265625 1.140625 -0.265625 Z "/>
</g>
<g id="glyph-0-2">
<path d="M 0.03125 0 L 0.03125 -0.203125 L 0.0625 -0.203125 C 0.1875 -0.203125 0.285156 -0.222656 0.359375 -0.265625 C 0.429688 -0.316406 0.515625 -0.40625 0.609375 -0.53125 L 1.25 -1.34375 L 0.609375 -2.203125 C 0.535156 -2.285156 0.460938 -2.347656 0.390625 -2.390625 C 0.328125 -2.441406 0.257812 -2.46875 0.1875 -2.46875 L 0.125 -2.46875 L 0.125 -2.6875 L 1.390625 -2.6875 L 1.390625 -2.46875 L 1.375 -2.46875 C 1.257812 -2.46875 1.179688 -2.453125 1.140625 -2.421875 C 1.109375 -2.398438 1.09375 -2.367188 1.09375 -2.328125 C 1.09375 -2.296875 1.101562 -2.257812 1.125 -2.21875 C 1.144531 -2.1875 1.171875 -2.144531 1.203125 -2.09375 L 1.53125 -1.640625 L 1.796875 -2.015625 C 1.828125 -2.078125 1.851562 -2.132812 1.875 -2.1875 C 1.90625 -2.238281 1.921875 -2.285156 1.921875 -2.328125 C 1.921875 -2.390625 1.894531 -2.425781 1.84375 -2.4375 C 1.789062 -2.457031 1.726562 -2.46875 1.65625 -2.46875 L 1.640625 -2.46875 L 1.640625 -2.6875 L 2.734375 -2.6875 L 2.734375 -2.46875 L 2.6875 -2.46875 C 2.59375 -2.46875 2.507812 -2.445312 2.4375 -2.40625 C 2.363281 -2.375 2.28125 -2.289062 2.1875 -2.15625 L 1.671875 -1.46875 L 2.40625 -0.46875 C 2.476562 -0.375 2.546875 -0.304688 2.609375 -0.265625 C 2.671875 -0.222656 2.734375 -0.203125 2.796875 -0.203125 L 2.859375 -0.203125 L 2.859375 0 L 1.578125 0 L 1.578125 -0.203125 L 1.59375 -0.203125 C 1.800781 -0.203125 1.90625 -0.257812 1.90625 -0.375 C 1.90625 -0.414062 1.890625 -0.457031 1.859375 -0.5 C 1.835938 -0.539062 1.785156 -0.613281 1.703125 -0.71875 L 1.375 -1.171875 L 1.03125 -0.6875 C 1 -0.644531 0.96875 -0.59375 0.9375 -0.53125 C 0.90625 -0.46875 0.890625 -0.410156 0.890625 -0.359375 C 0.890625 -0.304688 0.910156 -0.265625 0.953125 -0.234375 C 1.003906 -0.210938 1.085938 -0.203125 1.203125 -0.203125 L 1.21875 -0.203125 L 1.21875 0 Z "/>
</g>
<g id="glyph-0-3">
<path d="M 0.1875 0 L 0.1875 -0.203125 L 0.25 -0.203125 C 0.363281 -0.203125 0.460938 -0.222656 0.546875 -0.265625 C 0.628906 -0.304688 0.671875 -0.40625 0.671875 -0.5625 L 0.671875 -3.015625 C 0.671875 -3.160156 0.628906 -3.253906 0.546875 -3.296875 C 0.460938 -3.335938 0.363281 -3.359375 0.25 -3.359375 L 0.1875 -3.359375 L 0.1875 -3.5625 L 1.59375 -3.5625 C 2.007812 -3.5625 2.316406 -3.46875 2.515625 -3.28125 C 2.722656 -3.101562 2.828125 -2.851562 2.828125 -2.53125 C 2.828125 -2.332031 2.78125 -2.144531 2.6875 -1.96875 C 2.601562 -1.789062 2.460938 -1.648438 2.265625 -1.546875 C 2.078125 -1.441406 1.816406 -1.390625 1.484375 -1.390625 L 1.171875 -1.390625 L 1.171875 -0.546875 C 1.171875 -0.398438 1.210938 -0.304688 1.296875 -0.265625 C 1.378906 -0.222656 1.472656 -0.203125 1.578125 -0.203125 L 1.75 -0.203125 L 1.75 0 Z M 1.4375 -1.625 C 1.738281 -1.625 1.953125 -1.691406 2.078125 -1.828125 C 2.210938 -1.960938 2.28125 -2.1875 2.28125 -2.5 C 2.28125 -2.78125 2.222656 -2.988281 2.109375 -3.125 C 1.992188 -3.257812 1.796875 -3.328125 1.515625 -3.328125 L 1.171875 -3.328125 L 1.171875 -1.625 Z "/>
</g>
<g id="glyph-0-4">
<path d="M 1.4375 0.046875 C 1.070312 0.046875 0.785156 -0.0664062 0.578125 -0.296875 C 0.378906 -0.523438 0.28125 -0.875 0.28125 -1.34375 C 0.28125 -1.8125 0.378906 -2.160156 0.578125 -2.390625 C 0.773438 -2.617188 1.066406 -2.734375 1.453125 -2.734375 C 1.804688 -2.734375 2.085938 -2.617188 2.296875 -2.390625 C 2.503906 -2.160156 2.609375 -1.8125 2.609375 -1.34375 C 2.609375 -0.875 2.507812 -0.523438 2.3125 -0.296875 C 2.113281 -0.0664062 1.820312 0.046875 1.4375 0.046875 Z M 1.4375 -0.203125 C 1.6875 -0.203125 1.863281 -0.296875 1.96875 -0.484375 C 2.070312 -0.679688 2.125 -0.96875 2.125 -1.34375 C 2.125 -1.71875 2.070312 -2 1.96875 -2.1875 C 1.863281 -2.375 1.6875 -2.46875 1.4375 -2.46875 C 1.1875 -2.46875 1.007812 -2.375 0.90625 -2.1875 C 0.8125 -2 0.765625 -1.71875 0.765625 -1.34375 C 0.765625 -0.96875 0.8125 -0.679688 0.90625 -0.484375 C 1.007812 -0.296875 1.1875 -0.203125 1.4375 -0.203125 Z "/>
</g>
<g id="glyph-0-5">
<path d="M 0.0625 0 L 0.0625 -0.203125 L 0.125 -0.203125 C 0.238281 -0.203125 0.335938 -0.222656 0.421875 -0.265625 C 0.503906 -0.304688 0.546875 -0.40625 0.546875 -0.5625 L 0.546875 -3.25 C 0.546875 -3.394531 0.503906 -3.488281 0.421875 -3.53125 C 0.335938 -3.570312 0.238281 -3.59375 0.125 -3.59375 L 0.0625 -3.59375 L 0.0625 -3.796875 L 1.015625 -3.796875 L 1.015625 -0.5625 C 1.015625 -0.40625 1.050781 -0.304688 1.125 -0.265625 C 1.207031 -0.222656 1.304688 -0.203125 1.421875 -0.203125 L 1.484375 -0.203125 L 1.484375 0 Z "/>
</g>
<g id="glyph-0-6">
</g>
<g id="glyph-0-7">
<path d="M 0.3125 0 L 0.3125 -0.359375 L 1.140625 -1.328125 C 1.316406 -1.535156 1.457031 -1.710938 1.5625 -1.859375 C 1.664062 -2.015625 1.738281 -2.160156 1.78125 -2.296875 C 1.820312 -2.429688 1.84375 -2.578125 1.84375 -2.734375 C 1.84375 -2.921875 1.800781 -3.070312 1.71875 -3.1875 C 1.644531 -3.3125 1.519531 -3.375 1.34375 -3.375 C 1.1875 -3.375 1.066406 -3.335938 0.984375 -3.265625 C 0.910156 -3.191406 0.859375 -3.097656 0.828125 -2.984375 C 0.804688 -2.878906 0.796875 -2.757812 0.796875 -2.625 C 0.671875 -2.625 0.566406 -2.644531 0.484375 -2.6875 C 0.398438 -2.738281 0.359375 -2.828125 0.359375 -2.953125 C 0.359375 -3.140625 0.441406 -3.296875 0.609375 -3.421875 C 0.773438 -3.554688 1.019531 -3.625 1.34375 -3.625 C 1.65625 -3.625 1.898438 -3.546875 2.078125 -3.390625 C 2.265625 -3.242188 2.359375 -3.039062 2.359375 -2.78125 C 2.359375 -2.550781 2.285156 -2.320312 2.140625 -2.09375 C 1.992188 -1.875 1.785156 -1.617188 1.515625 -1.328125 L 0.671875 -0.40625 L 1.828125 -0.40625 C 1.984375 -0.40625 2.085938 -0.441406 2.140625 -0.515625 C 2.191406 -0.585938 2.226562 -0.675781 2.25 -0.78125 L 2.265625 -0.859375 L 2.484375 -0.859375 L 2.453125 0 Z "/>
</g>
<g id="glyph-0-8">
<path d="M 0.5625 -0.75 L 0.359375 -0.96875 L 1.1875 -1.796875 L 0.359375 -2.625 L 0.5625 -2.828125 L 1.390625 -2 L 2.21875 -2.828125 L 2.4375 -2.625 L 1.609375 -1.796875 L 2.4375 -0.953125 L 2.21875 -0.75 L 1.390625 -1.578125 Z "/>
</g>
</g>
</defs>
<g fill="rgb(34.509804%, 76.862745%, 86.666667%)" fill-opacity="1">
<use xlink:href="#glyph-0-0" x="30" y="25.344727"/>
<use xlink:href="#glyph-0-1" x="35" y="25.344727"/>
<use xlink:href="#glyph-0-2" x="38" y="25.344727"/>
<use xlink:href="#glyph-0-3" x="41" y="25.344727"/>
<use xlink:href="#glyph-0-4" x="44" y="25.344727"/>
<use xlink:href="#glyph-0-4" x="47" y="25.344727"/>
<use xlink:href="#glyph-0-5" x="50" y="25.344727"/>
<use xlink:href="#glyph-0-6" x="52" y="25.344727"/>
<use xlink:href="#glyph-0-7" x="53" y="25.344727"/>
<use xlink:href="#glyph-0-8" x="56" y="25.344727"/>
<use xlink:href="#glyph-0-7" x="59" y="25.344727"/>
</g>
</svg>
