<?xml version="1.0" encoding="UTF-8"?>
<svg xmlns="http://www.w3.org/2000/svg" xmlns:xlink="http://www.w3.org/1999/xlink" width="854" height="480" viewBox="0 0 854 480">
<defs>
<g>
<g id="glyph-0-0">
<path d="M 2.0625 0.0625 C 1.664062 0.0625 1.335938 -0.0195312 1.078125 -0.1875 C 0.828125 -0.363281 0.632812 -0.601562 0.5 -0.90625 C 0.375 -1.21875 0.3125 -1.582031 0.3125 -2 C 0.3125 -2.40625 0.375 -2.757812 0.5 -3.0625 C 0.632812 -3.375 0.832031 -3.613281 1.09375 -3.78125 C 1.351562 -3.945312 1.675781 -4.03125 2.0625 -4.03125 C 2.4375 -4.03125 2.753906 -3.945312 3.015625 -3.78125 C 3.273438 -3.613281 3.472656 -3.375 3.609375 -3.0625 C 3.742188 -2.757812 3.8125 -2.398438 3.8125 -1.984375 C 3.8125 -1.578125 3.742188 -1.21875 3.609375 -0.90625 C 3.472656 -0.601562 3.273438 -0.363281 3.015625 -0.1875 C 2.753906 -0.0195312 2.4375 0.0625 2.0625 0.0625 Z M 2.0625 -0.25 C 2.476562 -0.25 2.769531 -0.398438 2.9375 -0.703125 C 3.101562 -1.015625 3.1875 -1.441406 3.1875 -1.984375 C 3.1875 -2.535156 3.101562 -2.960938 2.9375 -3.265625 C 2.769531 -3.578125 2.476562 -3.734375 2.0625 -3.734375 C 1.65625 -3.734375 1.363281 -3.578125 1.1875 -3.265625 C 1.007812 -2.960938 0.921875 -2.535156 0.921875 -1.984375 C 0.921875 -1.441406 1.007812 -1.015625 1.1875 -0.703125 C 1.363281 -0.398438 1.65625 -0.25 2.0625 -0.25 Z "/>
</g>
<g id="glyph-0-1">
<path d="M 1.515625 0.0625 C 1.222656 0.0625 0.992188 -0.0234375 0.828125 -0.203125 C 0.671875 -0.378906 0.59375 -0.65625 0.59375 -1.03125 L 0.59375 -2.375 C 0.59375 -2.53125 0.546875 -2.628906 0.453125 -2.671875 C 0.367188 -2.722656 0.265625 -2.75 0.140625 -2.75 L 0.125 -2.75 L 0.125 -2.984375 L 1.125 -2.984375 L 1.125 -1.0625 C 1.125 -0.820312 1.164062 -0.632812 1.25 -0.5 C 1.332031 -0.363281 1.484375 -0.296875 1.703125 -0.296875 C 1.953125 -0.296875 2.128906 -0.378906 2.234375 -0.546875 C 2.347656 -0.710938 2.40625 -0.929688 2.40625 -1.203125 L 2.40625 -2.34375 C 2.40625 -2.519531 2.359375 -2.628906 2.265625 -2.671875 C 2.179688 -2.722656 2.078125 -2.75 1.953125 -2.75 L 1.9375 -2.75 L 1.9375 -2.984375 L 2.9375 -2.984375 L 2.9375 -0.609375 C 2.9375 -0.441406 2.976562 -0.335938 3.0625 -0.296875 C 3.15625 -0.253906 3.265625 -0.234375 3.390625 -0.234375 L 3.40625 -0.234375 L 3.40625 0 L 2.515625 0 L 2.453125 -0.453125 L 2.421875 -0.453125 C 2.304688 -0.242188 2.171875 -0.101562 2.015625 -0.03125 C 1.867188 0.03125 1.703125 0.0625 1.515625 0.0625 Z "/>
</g>
<g id="glyph-0-2">
<path d="M 1.328125 0.0625 C 1.046875 0.0625 0.84375 0 0.71875 -0.125 C 0.59375 -0.257812 0.53125 -0.488281 0.53125 -0.8125 L 0.53125 -2.671875 L 0.109375 -2.671875 L 0.109375 -2.890625 C 0.171875 -2.890625 0.242188 -2.898438 0.328125 -2.921875 C 0.410156 -2.953125 0.484375 -3 0.546875 -3.0625 C 0.609375 -3.132812 0.65625 -3.21875 0.6875 -3.3125 C 0.726562 -3.40625 0.765625 -3.523438 0.796875 -3.671875 L 1.046875 -3.671875 L 1.046875 -2.984375 L 1.78125 -2.984375 L 1.78125 -2.671875 L 1.046875 -2.671875 L 1.046875 -0.796875 C 1.046875 -0.597656 1.082031 -0.453125 1.15625 -0.359375 C 1.238281 -0.273438 1.34375 -0.234375 1.46875 -0.234375 C 1.539062 -0.234375 1.601562 -0.238281 1.65625 -0.25 C 1.707031 -0.257812 1.765625 -0.269531 1.828125 -0.28125 L 1.828125 -0.03125 C 1.773438 -0.0078125 1.703125 0.0078125 1.609375 0.03125 C 1.515625 0.0507812 1.421875 0.0625 1.328125 0.0625 Z "/>
</g>
<g id="glyph-0-3">
<path d="M 0.09375 1.328125 L 0.09375 1.09375 L 0.140625 1.09375 C 0.265625 1.09375 0.367188 1.070312 0.453125 1.03125 C 0.546875 0.988281 0.59375 0.878906 0.59375 0.703125 L 0.59375 -2.375 C 0.59375 -2.53125 0.546875 -2.628906 0.453125 -2.671875 C 0.367188 -2.722656 0.265625 -2.75 0.140625 -2.75 L 0.078125 -2.75 L 0.078125 -2.984375 L 1.046875 -2.984375 L 1.09375 -2.484375 L 1.125 -2.484375 C 1.207031 -2.648438 1.316406 -2.78125 1.453125 -2.875 C 1.585938 -2.976562 1.757812 -3.03125 1.96875 -3.03125 C 2.34375 -3.03125 2.625 -2.90625 2.8125 -2.65625 C 3.007812 -2.414062 3.109375 -2.03125 3.109375 -1.5 C 3.109375 -0.957031 3.007812 -0.5625 2.8125 -0.3125 C 2.625 -0.0625 2.34375 0.0625 1.96875 0.0625 C 1.757812 0.0625 1.585938 0.015625 1.453125 -0.078125 C 1.316406 -0.171875 1.207031 -0.289062 1.125 -0.4375 L 1.09375 -0.4375 C 1.101562 -0.320312 1.109375 -0.203125 1.109375 -0.078125 C 1.117188 0.0351562 1.125 0.125 1.125 0.1875 L 1.125 0.734375 C 1.125 0.890625 1.164062 0.988281 1.25 1.03125 C 1.34375 1.070312 1.453125 1.09375 1.578125 1.09375 L 1.59375 1.09375 L 1.59375 1.328125 Z M 1.890625 -0.296875 C 2.128906 -0.296875 2.300781 -0.398438 2.40625 -0.609375 C 2.507812 -0.816406 2.5625 -1.113281 2.5625 -1.5 C 2.5625 -1.894531 2.507812 -2.191406 2.40625 -2.390625 C 2.300781 -2.585938 2.125 -2.6875 1.875 -2.6875 C 1.59375 -2.6875 1.394531 -2.585938 1.28125 -2.390625 C 1.175781 -2.191406 1.125 -1.894531 1.125 -1.5 C 1.125 -1.113281 1.175781 -0.816406 1.28125 -0.609375 C 1.394531 -0.398438 1.597656 -0.296875 1.890625 -0.296875 Z "/>
</g>
<g id="glyph-0-4">
</g>
<g id="glyph-0-5">
<path d="M 1.75 0.71875 C 1.40625 0.570312 1.128906 0.390625 0.921875 0.171875 C 0.710938 -0.0351562 0.554688 -0.296875 0.453125 -0.609375 C 0.359375 -0.929688 0.3125 -1.316406 0.3125 -1.765625 C 0.3125 -2.210938 0.359375 -2.59375 0.453125 -2.90625 C 0.554688 -3.21875 0.710938 -3.484375 0.921875 -3.703125 C 1.128906 -3.921875 1.40625 -4.097656 1.75 -4.234375 L 1.75 -3.984375 C 1.488281 -3.828125 1.296875 -3.628906 1.171875 -3.390625 C 1.054688 -3.160156 0.976562 -2.90625 0.9375 -2.625 C 0.90625 -2.34375 0.890625 -2.054688 0.890625 -1.765625 C 0.890625 -1.472656 0.90625 -1.1875 0.9375 -0.90625 C 0.976562 -0.625 1.054688 -0.363281 1.171875 -0.125 C 1.296875 0.101562 1.488281 0.296875 1.75 0.453125 Z "/>
</g>
<g id="glyph-0-6">
<path d="M 0.21875 1.078125 C 0.46875 1.078125 0.671875 1.023438 0.828125 0.921875 C 0.992188 0.828125 1.125 0.695312 1.21875 0.53125 C 1.320312 0.375 1.40625 0.191406 1.46875 -0.015625 L 0.4375 -2.453125 C 0.382812 -2.566406 0.332031 -2.644531 0.28125 -2.6875 C 0.226562 -2.726562 0.144531 -2.75 0.03125 -2.75 L 0.015625 -2.75 L 0.015625 -2.984375 L 1.359375 -2.984375 L 1.359375 -2.75 L 1.34375 -2.75 C 1.113281 -2.75 1 -2.660156 1 -2.484375 C 1 -2.421875 1.015625 -2.351562 1.046875 -2.28125 L 1.453125 -1.28125 C 1.492188 -1.195312 1.53125 -1.101562 1.5625 -1 C 1.601562 -0.894531 1.632812 -0.796875 1.65625 -0.703125 C 1.6875 -0.617188 1.707031 -0.546875 1.71875 -0.484375 C 1.75 -0.585938 1.785156 -0.695312 1.828125 -0.8125 C 1.867188 -0.925781 1.910156 -1.039062 1.953125 -1.15625 L 2.3125 -2.234375 C 2.351562 -2.328125 2.375 -2.40625 2.375 -2.46875 C 2.375 -2.65625 2.25 -2.75 2 -2.75 L 1.984375 -2.75 L 1.984375 -2.984375 L 3.140625 -2.984375 L 3.140625 -2.75 L 3.125 -2.75 C 3.019531 -2.75 2.9375 -2.71875 2.875 -2.65625 C 2.820312 -2.601562 2.765625 -2.488281 2.703125 -2.3125 L 1.859375 0.015625 C 1.765625 0.285156 1.671875 0.503906 1.578125 0.671875 C 1.492188 0.847656 1.394531 0.984375 1.28125 1.078125 C 1.175781 1.171875 1.039062 1.234375 0.875 1.265625 C 0.707031 1.304688 0.503906 1.328125 0.265625 1.328125 L 0.21875 1.328125 Z M 0.8125 -3.4375 C 0.875 -3.507812 0.9375 -3.59375 1 -3.6875 C 1.070312 -3.789062 1.140625 -3.890625 1.203125 -3.984375 C 1.273438 -4.085938 1.332031 -4.179688 1.375 -4.265625 L 1.90625 -4.265625 C 1.945312 -4.179688 2 -4.085938 2.0625 -3.984375 C 2.125 -3.890625 2.191406 -3.789062 2.265625 -3.6875 C 2.335938 -3.59375 2.398438 -3.507812 2.453125 -3.4375 L 2.453125 -3.375 L 2.234375 -3.375 C 2.128906 -3.4375 2.023438 -3.507812 1.921875 -3.59375 C 1.816406 -3.6875 1.722656 -3.78125 1.640625 -3.875 C 1.554688 -3.78125 1.457031 -3.6875 1.34375 -3.59375 C 1.238281 -3.507812 1.132812 -3.4375 1.03125 -3.375 L 0.8125 -3.375 Z "/>
</g>
<g id="glyph-0-7">
<path d="M 0.171875 0.453125 C 0.429688 0.296875 0.617188 0.101562 0.734375 -0.125 C 0.859375 -0.363281 0.9375 -0.625 0.96875 -0.90625 C 1.007812 -1.1875 1.03125 -1.472656 1.03125 -1.765625 C 1.03125 -2.054688 1.007812 -2.34375 0.96875 -2.625 C 0.9375 -2.90625 0.859375 -3.160156 0.734375 -3.390625 C 0.617188 -3.628906 0.429688 -3.828125 0.171875 -3.984375 L 0.171875 -4.234375 C 0.515625 -4.097656 0.789062 -3.921875 1 -3.703125 C 1.207031 -3.484375 1.359375 -3.21875 1.453125 -2.90625 C 1.554688 -2.59375 1.609375 -2.210938 1.609375 -1.765625 C 1.609375 -1.316406 1.554688 -0.929688 1.453125 -0.609375 C 1.359375 -0.296875 1.207031 -0.0351562 1 0.171875 C 0.789062 0.390625 0.515625 0.570312 0.171875 0.71875 Z "/>
</g>
</g>
</defs>
<g fill="rgb(98.823529%, 38.431373%, 33.333333%)" fill-opacity="1">
<use xlink:href="#glyph-0-0" x="30" y="25.939453"/>
<use xlink:href="#glyph-0-1" x="34" y="25.939453"/>
<use xlink:href="#glyph-0-2" x="38" y="25.939453"/>
<use xlink:href="#glyph-0-3" x="40" y="25.939453"/>
<use xlink:href="#glyph-0-1" x="43" y="25.939453"/>
<use xlink:href="#glyph-0-2" x="47" y="25.939453"/>
<use xlink:href="#glyph-0-4" x="49" y="25.939453"/>
</g>
<g fill="rgb(98.823529%, 38.431373%, 33.333333%)" fill-opacity="1">
<use xlink:href="#glyph-0-5" x="30" y="31.357422"/>
<use xlink:href="#glyph-0-6" x="32" y="31.357422"/>
<use xlink:href="#glyph-0-7" x="35" y="31.357422"/>
</g>
</svg>
