<?xml version="1.0" encoding="UTF-8"?>
<svg xmlns="http://www.w3.org/2000/svg" xmlns:xlink="http://www.w3.org/1999/xlink" width="854" height="480" viewBox="0 0 854 480">
<defs>
<g>
<g id="glyph-0-0">
<path d="M 0.5 2.578125 C 1.101562 2.578125 1.597656 2.457031 1.984375 2.21875 C 2.378906 1.988281 2.695312 1.675781 2.9375 1.28125 C 3.175781 0.882812 3.363281 0.441406 3.5 -0.046875 L 1.046875 -5.875 C 0.921875 -6.15625 0.796875 -6.34375 0.671875 -6.4375 C 0.546875 -6.53125 0.351562 -6.578125 0.09375 -6.578125 L 0.046875 -6.578125 L 0.046875 -7.140625 L 3.25 -7.140625 L 3.25 -6.578125 L 3.21875 -6.578125 C 2.675781 -6.578125 2.40625 -6.363281 2.40625 -5.9375 C 2.40625 -5.789062 2.441406 -5.628906 2.515625 -5.453125 L 3.484375 -3.078125 C 3.578125 -2.867188 3.664062 -2.644531 3.75 -2.40625 C 3.832031 -2.164062 3.910156 -1.929688 3.984375 -1.703125 C 4.054688 -1.484375 4.101562 -1.296875 4.125 -1.140625 C 4.1875 -1.398438 4.269531 -1.664062 4.375 -1.9375 C 4.476562 -2.21875 4.578125 -2.492188 4.671875 -2.765625 L 5.5625 -5.359375 C 5.632812 -5.566406 5.671875 -5.757812 5.671875 -5.9375 C 5.671875 -6.363281 5.378906 -6.578125 4.796875 -6.578125 L 4.765625 -6.578125 L 4.765625 -7.140625 L 7.53125 -7.140625 L 7.53125 -6.578125 L 7.484375 -6.578125 C 7.234375 -6.578125 7.039062 -6.507812 6.90625 -6.375 C 6.769531 -6.25 6.628906 -5.972656 6.484375 -5.546875 L 4.453125 0.046875 C 4.222656 0.703125 4 1.234375 3.78125 1.640625 C 3.570312 2.046875 3.332031 2.363281 3.0625 2.59375 C 2.800781 2.820312 2.472656 2.976562 2.078125 3.0625 C 1.691406 3.15625 1.207031 3.203125 0.625 3.203125 L 0.5 3.203125 Z "/>
</g>
<g id="glyph-0-1">
</g>
<g id="glyph-0-2">
<path d="M 0.859375 -5.671875 L 0.859375 -6.46875 L 6.578125 -6.46875 L 6.578125 -5.671875 Z M 0.859375 -3.046875 L 0.859375 -3.84375 L 6.578125 -3.84375 L 6.578125 -3.046875 Z "/>
</g>
<g id="glyph-0-3">
<path d="M 0.375 0 L 0.375 -0.5625 L 0.546875 -0.5625 C 0.847656 -0.5625 1.09375 -0.613281 1.28125 -0.71875 C 1.476562 -0.832031 1.578125 -1.097656 1.578125 -1.515625 L 1.578125 -5.671875 C 1.578125 -6.066406 1.476562 -6.316406 1.28125 -6.421875 C 1.082031 -6.523438 0.835938 -6.578125 0.546875 -6.578125 L 0.5 -6.578125 L 0.5 -7.140625 L 2.59375 -7.140625 L 2.765625 -6.0625 L 2.84375 -6.0625 C 3.101562 -6.5625 3.398438 -6.890625 3.734375 -7.046875 C 4.066406 -7.203125 4.4375 -7.28125 4.84375 -7.28125 C 5.269531 -7.28125 5.65625 -7.1875 6 -7 C 6.351562 -6.820312 6.613281 -6.507812 6.78125 -6.0625 L 6.890625 -6.0625 C 7.160156 -6.5625 7.472656 -6.890625 7.828125 -7.046875 C 8.191406 -7.203125 8.578125 -7.28125 8.984375 -7.28125 C 9.671875 -7.28125 10.203125 -7.070312 10.578125 -6.65625 C 10.960938 -6.238281 11.15625 -5.578125 11.15625 -4.671875 L 11.15625 -1.515625 C 11.15625 -1.097656 11.25 -0.832031 11.4375 -0.71875 C 11.632812 -0.613281 11.882812 -0.5625 12.1875 -0.5625 L 12.21875 -0.5625 L 12.21875 0 L 9.90625 0 L 9.90625 -4.59375 C 9.90625 -5.175781 9.800781 -5.625 9.59375 -5.9375 C 9.382812 -6.257812 9.019531 -6.421875 8.5 -6.421875 C 8.132812 -6.421875 7.84375 -6.328125 7.625 -6.140625 C 7.40625 -5.960938 7.25 -5.722656 7.15625 -5.421875 C 7.070312 -5.117188 7.03125 -4.789062 7.03125 -4.4375 L 7.03125 -1.515625 C 7.03125 -1.097656 7.125 -0.832031 7.3125 -0.71875 C 7.5 -0.613281 7.742188 -0.5625 8.046875 -0.5625 L 8.09375 -0.5625 L 8.09375 0 L 5.765625 0 L 5.765625 -4.59375 C 5.765625 -5.175781 5.660156 -5.625 5.453125 -5.9375 C 5.242188 -6.257812 4.882812 -6.421875 4.375 -6.421875 C 3.988281 -6.421875 3.679688 -6.320312 3.453125 -6.125 C 3.234375 -5.925781 3.070312 -5.660156 2.96875 -5.328125 C 2.875 -5.003906 2.828125 -4.648438 2.828125 -4.265625 L 2.828125 -1.453125 C 2.828125 -1.054688 2.9375 -0.804688 3.15625 -0.703125 C 3.375 -0.609375 3.628906 -0.5625 3.921875 -0.5625 L 3.953125 -0.5625 L 3.953125 0 Z "/>
</g>
<g id="glyph-0-4">
<path d="M 0.0625 0 L 0.0625 -0.5625 L 0.1875 -0.5625 C 0.507812 -0.5625 0.765625 -0.617188 0.953125 -0.734375 C 1.148438 -0.859375 1.378906 -1.082031 1.640625 -1.40625 L 3.3125 -3.578125 L 1.640625 -5.875 C 1.441406 -6.101562 1.25 -6.273438 1.0625 -6.390625 C 0.882812 -6.515625 0.695312 -6.578125 0.5 -6.578125 L 0.3125 -6.578125 L 0.3125 -7.140625 L 3.703125 -7.140625 L 3.703125 -6.578125 L 3.671875 -6.578125 C 3.367188 -6.578125 3.164062 -6.539062 3.0625 -6.46875 C 2.957031 -6.394531 2.90625 -6.304688 2.90625 -6.203125 C 2.90625 -6.109375 2.929688 -6.015625 2.984375 -5.921875 C 3.035156 -5.835938 3.113281 -5.722656 3.21875 -5.578125 L 4.09375 -4.390625 L 4.78125 -5.390625 C 4.882812 -5.535156 4.96875 -5.675781 5.03125 -5.8125 C 5.09375 -5.957031 5.125 -6.085938 5.125 -6.203125 C 5.125 -6.359375 5.050781 -6.457031 4.90625 -6.5 C 4.769531 -6.550781 4.597656 -6.578125 4.390625 -6.578125 L 4.359375 -6.578125 L 4.359375 -7.140625 L 7.28125 -7.140625 L 7.28125 -6.578125 L 7.15625 -6.578125 C 6.894531 -6.578125 6.671875 -6.523438 6.484375 -6.421875 C 6.296875 -6.328125 6.070312 -6.097656 5.8125 -5.734375 L 4.4375 -3.90625 L 6.390625 -1.265625 C 6.585938 -1.003906 6.769531 -0.820312 6.9375 -0.71875 C 7.113281 -0.613281 7.289062 -0.5625 7.46875 -0.5625 L 7.640625 -0.5625 L 7.640625 0 L 4.203125 0 L 4.203125 -0.5625 L 4.265625 -0.5625 C 4.796875 -0.5625 5.0625 -0.707031 5.0625 -1 C 5.0625 -1.09375 5.023438 -1.195312 4.953125 -1.3125 C 4.890625 -1.4375 4.757812 -1.640625 4.5625 -1.921875 L 3.671875 -3.125 L 2.734375 -1.8125 C 2.648438 -1.707031 2.566406 -1.578125 2.484375 -1.421875 C 2.410156 -1.265625 2.375 -1.113281 2.375 -0.96875 C 2.375 -0.832031 2.4375 -0.726562 2.5625 -0.65625 C 2.695312 -0.59375 2.910156 -0.5625 3.203125 -0.5625 L 3.234375 -0.5625 L 3.234375 0 Z "/>
</g>
<g id="glyph-0-5">
<path d="M 3.3125 -1.90625 L 3.3125 -4.375 L 0.859375 -4.375 L 0.859375 -5.15625 L 3.3125 -5.15625 L 3.3125 -7.625 L 4.125 -7.625 L 4.125 -5.15625 L 6.578125 -5.15625 L 6.578125 -4.375 L 4.125 -4.375 L 4.125 -1.90625 Z "/>
</g>
<g id="glyph-0-6">
<path d="M 4.734375 0.140625 C 4.210938 0.140625 3.789062 0.03125 3.46875 -0.1875 C 3.144531 -0.40625 2.882812 -0.691406 2.6875 -1.046875 L 2.609375 -1.046875 L 2.375 0 L 0.234375 0 L 0.234375 -0.5625 L 0.34375 -0.5625 C 0.644531 -0.5625 0.898438 -0.613281 1.109375 -0.71875 C 1.328125 -0.832031 1.4375 -1.097656 1.4375 -1.515625 L 1.4375 -8.65625 C 1.4375 -9.050781 1.328125 -9.300781 1.109375 -9.40625 C 0.890625 -9.507812 0.632812 -9.5625 0.34375 -9.5625 L 0.234375 -9.5625 L 0.234375 -10.125 L 2.6875 -10.125 L 2.6875 -7.671875 C 2.6875 -7.523438 2.679688 -7.332031 2.671875 -7.09375 C 2.671875 -6.863281 2.664062 -6.640625 2.65625 -6.421875 C 2.65625 -6.203125 2.648438 -6.039062 2.640625 -5.9375 L 2.6875 -5.9375 C 2.894531 -6.351562 3.15625 -6.679688 3.46875 -6.921875 C 3.789062 -7.160156 4.210938 -7.28125 4.734375 -7.28125 C 5.609375 -7.28125 6.28125 -6.984375 6.75 -6.390625 C 7.21875 -5.796875 7.453125 -4.859375 7.453125 -3.578125 C 7.453125 -2.296875 7.21875 -1.351562 6.75 -0.75 C 6.28125 -0.15625 5.609375 0.140625 4.734375 0.140625 Z M 4.515625 -0.71875 C 5.097656 -0.71875 5.515625 -0.960938 5.765625 -1.453125 C 6.023438 -1.953125 6.15625 -2.664062 6.15625 -3.59375 C 6.15625 -4.550781 6.023438 -5.257812 5.765625 -5.71875 C 5.515625 -6.1875 5.09375 -6.421875 4.5 -6.421875 C 3.8125 -6.421875 3.335938 -6.1875 3.078125 -5.71875 C 2.816406 -5.257812 2.6875 -4.546875 2.6875 -3.578125 C 2.6875 -2.660156 2.816406 -1.953125 3.078125 -1.453125 C 3.335938 -0.960938 3.816406 -0.71875 4.515625 -0.71875 Z "/>
</g>
</g>
</defs>
<g fill="rgb(100%, 100%, 100%)" fill-opacity="1">
<use xlink:href="#glyph-0-0" x="30" y="34.25293"/>
<use xlink:href="#glyph-0-1" x="38" y="34.25293"/>
<use xlink:href="#glyph-0-2" x="41" y="34.25293"/>
<use xlink:href="#glyph-0-1" x="48" y="34.25293"/>
<use xlink:href="#glyph-0-3" x="51" y="34.25293"/>
<use xlink:href="#glyph-0-4" x="64" y="34.25293"/>
<use xlink:href="#glyph-0-1" x="72" y="34.25293"/>
<use xlink:href="#glyph-0-5" x="75" y="34.25293"/>
<use xlink:href="#glyph-0-1" x="82" y="34.25293"/>
<use xlink:href="#glyph-0-6" x="85" y="34.25293"/>
</g>
</svg>
