<?xml version="1.0" encoding="UTF-8"?>
<svg xmlns="http://www.w3.org/2000/svg" xmlns:xlink="http://www.w3.org/1999/xlink" width="854" height="480" viewBox="0 0 854 480">
<defs>
<g>
<g id="glyph-0-0">
<path d="M 0.296875 0 L 0.296875 -0.328125 L 0.390625 -0.328125 C 0.566406 -0.328125 0.71875 -0.351562 0.84375 -0.40625 C 0.96875 -0.46875 1.03125 -0.613281 1.03125 -0.84375 L 1.03125 -4.703125 C 1.03125 -4.929688 0.96875 -5.078125 0.84375 -5.140625 C 0.71875 -5.203125 0.566406 -5.234375 0.390625 -5.234375 L 0.296875 -5.234375 L 0.296875 -5.5625 L 2.5625 -5.5625 L 2.5625 -5.234375 L 2.453125 -5.234375 C 2.273438 -5.234375 2.125 -5.195312 2 -5.125 C 1.882812 -5.0625 1.828125 -4.910156 1.828125 -4.671875 L 1.828125 -2.46875 L 3.4375 -4.3125 C 3.601562 -4.507812 3.710938 -4.664062 3.765625 -4.78125 C 3.828125 -4.894531 3.859375 -4.988281 3.859375 -5.0625 C 3.859375 -5.132812 3.828125 -5.179688 3.765625 -5.203125 C 3.703125 -5.222656 3.609375 -5.234375 3.484375 -5.234375 L 3.484375 -5.5625 L 5.203125 -5.5625 L 5.203125 -5.234375 C 5.023438 -5.234375 4.851562 -5.164062 4.6875 -5.03125 C 4.53125 -4.90625 4.351562 -4.726562 4.15625 -4.5 L 3.03125 -3.234375 L 4.671875 -0.953125 C 4.816406 -0.742188 4.957031 -0.585938 5.09375 -0.484375 C 5.238281 -0.378906 5.382812 -0.328125 5.53125 -0.328125 L 5.546875 -0.328125 L 5.546875 0 L 5.453125 0 C 5.191406 0 4.976562 -0.0078125 4.8125 -0.03125 C 4.644531 -0.0507812 4.503906 -0.0859375 4.390625 -0.140625 C 4.273438 -0.191406 4.175781 -0.257812 4.09375 -0.34375 C 4.007812 -0.4375 3.921875 -0.554688 3.828125 -0.703125 L 2.484375 -2.625 L 1.828125 -1.96875 L 1.828125 -0.890625 C 1.828125 -0.640625 1.882812 -0.484375 2 -0.421875 C 2.125 -0.359375 2.273438 -0.328125 2.453125 -0.328125 L 2.5625 -0.328125 L 2.5625 0 Z "/>
</g>
</g>
</defs>
<g fill="rgb(100%, 100%, 100%)" fill-opacity="1">
<use xlink:href="#glyph-0-0" x="30" y="28.314453"/>
</g>
</svg>
