<?xml version="1.0" encoding="UTF-8"?>
<svg xmlns="http://www.w3.org/2000/svg" xmlns:xlink="http://www.w3.org/1999/xlink" width="854" height="480" viewBox="0 0 854 480">
<defs>
<g>
<g id="glyph-0-0">
<path d="M 0.140625 0 L 0.140625 -0.15625 L 0.203125 -0.15625 C 0.285156 -0.15625 0.359375 -0.171875 0.421875 -0.203125 C 0.484375 -0.242188 0.515625 -0.320312 0.515625 -0.4375 L 0.515625 -2.34375 C 0.515625 -2.457031 0.484375 -2.53125 0.421875 -2.5625 C 0.359375 -2.59375 0.285156 -2.609375 0.203125 -2.609375 L 0.140625 -2.609375 L 0.140625 -2.78125 L 1.28125 -2.78125 L 1.28125 -2.609375 L 1.234375 -2.609375 C 1.140625 -2.609375 1.0625 -2.59375 1 -2.5625 C 0.9375 -2.53125 0.90625 -2.453125 0.90625 -2.328125 L 0.90625 -1.546875 L 2.171875 -1.546875 L 2.171875 -2.328125 C 2.171875 -2.453125 2.140625 -2.53125 2.078125 -2.5625 C 2.015625 -2.59375 1.941406 -2.609375 1.859375 -2.609375 L 1.8125 -2.609375 L 1.8125 -2.78125 L 2.9375 -2.78125 L 2.9375 -2.609375 L 2.890625 -2.609375 C 2.796875 -2.609375 2.71875 -2.59375 2.65625 -2.5625 C 2.59375 -2.53125 2.5625 -2.453125 2.5625 -2.328125 L 2.5625 -0.421875 C 2.5625 -0.304688 2.59375 -0.234375 2.65625 -0.203125 C 2.726562 -0.171875 2.804688 -0.15625 2.890625 -0.15625 L 2.9375 -0.15625 L 2.9375 0 L 1.8125 0 L 1.8125 -0.15625 L 1.859375 -0.15625 C 1.941406 -0.15625 2.015625 -0.171875 2.078125 -0.203125 C 2.140625 -0.242188 2.171875 -0.320312 2.171875 -0.4375 L 2.171875 -1.359375 L 0.90625 -1.359375 L 0.90625 -0.4375 C 0.90625 -0.320312 0.9375 -0.242188 1 -0.203125 C 1.0625 -0.171875 1.140625 -0.15625 1.234375 -0.15625 L 1.28125 -0.15625 L 1.28125 0 Z "/>
</g>
<g id="glyph-0-1">
<path d="M 0.84375 0 L 0.84375 -0.15625 L 0.953125 -0.15625 C 1.035156 -0.15625 1.109375 -0.171875 1.171875 -0.203125 C 1.234375 -0.242188 1.265625 -0.320312 1.265625 -0.4375 L 1.265625 -0.765625 L 0.0625 -0.765625 L 0.0625 -0.921875 L 1.265625 -2.78125 L 1.640625 -2.78125 L 1.640625 -0.984375 L 2.125 -0.984375 L 2.125 -0.765625 L 1.640625 -0.765625 L 1.640625 -0.4375 C 1.640625 -0.320312 1.671875 -0.242188 1.734375 -0.203125 C 1.796875 -0.171875 1.867188 -0.15625 1.953125 -0.15625 L 2 -0.15625 L 2 0 Z M 0.34375 -0.984375 L 1.265625 -0.984375 L 1.265625 -1.703125 C 1.265625 -1.773438 1.265625 -1.859375 1.265625 -1.953125 C 1.265625 -2.046875 1.265625 -2.140625 1.265625 -2.234375 C 1.273438 -2.335938 1.285156 -2.425781 1.296875 -2.5 C 1.273438 -2.476562 1.25 -2.441406 1.21875 -2.390625 C 1.195312 -2.335938 1.164062 -2.28125 1.125 -2.21875 C 1.09375 -2.15625 1.054688 -2.09375 1.015625 -2.03125 C 0.984375 -1.976562 0.957031 -1.9375 0.9375 -1.90625 Z "/>
</g>
</g>
</defs>
<g fill="rgb(100%, 100%, 100%)" fill-opacity="1">
<use xlink:href="#glyph-0-0" x="30" y="24.158203"/>
<use xlink:href="#glyph-0-1" x="33" y="24.158203"/>
</g>
</svg>
